<svg version="1" xmlns="http://www.w3.org/2000/svg" width="348" height="348" viewBox="0 0 3480 3480"><g fill="#f7f7f0"><path d="M1445 3465c-213-26-440-113-655-251-223-142-448-381-578-612C58 2329 0 2095 0 1740c0-356 58-590 215-869 124-219 354-463 565-599 145-94 313-172 467-217 250-73 736-73 986 0 284 83 537 236 755 456 206 209 358 465 438 738 72 247 72 735 0 982-147 500-530 928-1010 1128-143 60-254 90-391 106-143 17-439 17-580 0zm530-126c99-15 277-63 364-99 545-225 912-692 1002-1275 16-103 16-347 0-450-111-722-655-1265-1376-1376-103-16-347-16-450 0C794 250 250 793 139 1515c-16 103-16 347 0 450 90 583 457 1050 1002 1275 131 54 311 96 494 114 58 6 258-3 340-15z"/><path d="M1699 2742c-27-12-640-604-649-627-21-55 24-115 88-115 30 0 47 12 131 93 53 50 154 148 226 217l130 125 3-817 2-817 31-30c26-27 38-31 84-31s58 4 84 31l31 31v1633l127-135c70-74 172-181 228-237 112-114 131-122 184-77 25 21 31 33 31 65 0 38-12 52-301 359-166 176-309 321-318 324-36 10-97 15-112 8z"/></g></svg>