<?xml version="1.0" standalone="no"?>
<!DOCTYPE svg PUBLIC "-//W3C//DTD SVG 1.1//EN" "http://www.w3.org/Graphics/SVG/1.1/DTD/svg11.dtd" >
<svg xmlns="http://www.w3.org/2000/svg" xmlns:xlink="http://www.w3.org/1999/xlink" version="1.1">
<metadata>
Created by FontForge 20170731 at Fri Jun  1 03:46:26 2012
 By ,,,
Copyright (c) 2012 by Sergey Steblina &#38; Jovanny Lemonad. All rights reserved.
</metadata>
<defs>
<font id="Underdog" horiz-adv-x="278" >
  <font-face 
    font-family="Underdog"
    font-weight="400"
    font-stretch="normal"
    units-per-em="1000"
    panose-1="2 0 5 3 0 0 0 2 0 4"
    ascent="800"
    descent="-200"
    x-height="493"
    cap-height="699"
    bbox="-90 -247 1023 915"
    underline-thickness="50"
    underline-position="-200"
    unicode-range="U+0020-2122"
  />
<missing-glyph horiz-adv-x="320" 
 />
    <glyph glyph-name=".notdef" horiz-adv-x="320" 
 />
    <glyph glyph-name=".null" horiz-adv-x="0" 
 />
    <glyph glyph-name="nonmarkingreturn" horiz-adv-x="333" 
 />
    <glyph glyph-name="space" unicode=" " horiz-adv-x="320" 
 />
    <glyph glyph-name="exclam" unicode="!" horiz-adv-x="211" 
d="M60 699l94 -5l7 -45l-32 -486l-54 6l2 322zM82 99l74 -21l-29 -75l-65 2l-12 56z" />
    <glyph glyph-name="quotedbl" unicode="&#x22;" horiz-adv-x="316" 
d="M40 699l90 -5l-3 -45l-16 -189l-50 -4zM186 699l90 -5l-3 -45l-16 -189l-50 -4z" />
    <glyph glyph-name="numbersign" unicode="#" horiz-adv-x="656" 
d="M247 251h130l24 110l21 92l-145 -9l-12 -71l-34 -123zM488 414l-34 -163h134l-19 -48l-128 -2l-13 -60l-32 -146h-77l47 204l-150 -5l-51 -199l-88 -5l58 202l-125 -1v53l141 4l39 139l11 59l-150 6l-7 54l166 -3l44 217l82 -7l-21 -73l-27 -141l147 11l42 192l67 -9
l-36 -181l133 6l5 -56l-149 -5z" />
    <glyph glyph-name="dollar" unicode="$" horiz-adv-x="578" 
d="M351 88l97 40l-29 155l-72 16zM293 65l23 8l1 26l-3 207l-43 9l3 -64l-12 -177zM204 418l23 -4l-1 85l-5 111l-78 -77zM308 624l-47 -7l5 -132l2 -82l45 -14zM345 382l119 -32l60 -76l-17 -193l-154 -72l1 -81l-40 -12v77l-16 -8l-41 11l-4 -73h-41l6 84l-101 27l-33 -51
l-59 14l58 135l53 -15l85 -28l7 155l-1 79l-115 24l-56 209l106 122l57 5l-5 56l43 -17l2 -37l48 5v42l47 5l-6 -45l59 7l64 -43l27 36l55 -40l-93 -114l-42 35l-46 61l-32 -5l-1 -10z" />
    <glyph glyph-name="percent" unicode="%" horiz-adv-x="746" 
d="M201 643l-80 2l-32 -99l4 -69l60 -54l42 -3l60 70l-4 109zM121 713l116 -9l76 -80l1 -154l-82 -107l-103 -2l-93 89l-6 92l30 132zM485 711l64 -31l-44 -77l-234 -604l-59 24l-13 17l216 494zM603 272l-80 2l-32 -99l4 -69l60 -54l42 -3l60 70l-4 109zM523 342l116 -9
l76 -80l1 -154l-82 -107l-103 -2l-93 89l-6 92l30 132z" />
    <glyph glyph-name="ampersand" unicode="&#x26;" horiz-adv-x="639" 
d="M503 129l82 -78l49 -50l-111 -3l-62 72l-10 -15l-182 -90l-183 76l-66 183l122 147l34 23l-70 149l81 171l192 7l98 -145l-53 -89l-142 -114h-1l141 -165l33 -33l75 84l3 142l106 -4l-50 -147zM205 461l24 -29l177 124l-51 90l-116 21l-49 -96zM381 93l31 35l-3 4
l-187 194l-119 -97l24 -115l108 -75z" />
    <glyph glyph-name="quotesingle" unicode="'" horiz-adv-x="170" 
d="M40 699l90 -5l-3 -45l-16 -189l-50 -4z" />
    <glyph glyph-name="parenleft" unicode="(" horiz-adv-x="274" 
d="M215 816l38 -19l-93 -231l-43 -304l37 -228l110 -201l-38 -24l-118 149l-58 265l19 313z" />
    <glyph glyph-name="parenright" unicode=")" horiz-adv-x="281" 
d="M22 810l41 19l149 -286l19 -320l-61 -271l-120 -152l-40 25l102 154l39 253l-7 308z" />
    <glyph glyph-name="asterisk" unicode="*" horiz-adv-x="368" 
d="M133 702l100 -9l-6 -48l-11 -73l68 30l53 19l16 -40l5 -51h-76l-56 -12l28 -48l60 -54l-71 -63l-15 40l-28 66l-17 26l-23 -35l-35 -95l-54 29l-23 26l38 46l54 61l-69 9l-61 1l33 105l64 -43l58 -26l-5 59z" />
    <glyph glyph-name="plus" unicode="+" horiz-adv-x="461" 
d="M343 361l98 -6v-63l-90 5l-91 -1l-1 -59l2 -128l-53 -1l-8 124l1 64h-71h-110l2 60l115 -3l66 2v40l-4 133l63 -5l3 -127l-3 -39z" />
    <glyph glyph-name="comma" unicode="," horiz-adv-x="199" 
d="M38 90l69 30l62 -52l-34 -90l-72 -90l-33 8l69 99l-48 9z" />
    <glyph glyph-name="hyphen" unicode="-" horiz-adv-x="360" 
d="M20 371l152 -3l168 -2l-6 -78l-131 4h-178z" />
    <glyph glyph-name="period" unicode="." horiz-adv-x="189" 
d="M30 62l50 55l77 -20l2 -91l-87 -19z" />
    <glyph glyph-name="slash" unicode="/" horiz-adv-x="335" 
d="M335 707l-68 -162l-198 -572l-69 6l272 744z" />
    <glyph glyph-name="zero" unicode="0" horiz-adv-x="637" 
d="M383 607l-203 -9l-61 -222l26 -171l138 -119l91 -7l137 166l-16 254zM221 709l220 -20l145 -160l1 -306l-155 -212l-194 -5l-177 177l-11 185l57 260z" />
    <glyph glyph-name="one" unicode="1" horiz-adv-x="305" 
d="M0 654l172 44l73 -30l-18 -665l-76 -7l3 635l-147 -32z" />
    <glyph glyph-name="two" unicode="2" horiz-adv-x="516" 
d="M20 631l218 88l220 -94l-62 -289l-237 -261l337 6v-75l-465 -7l-8 60l272 277l65 229l-113 72l-192 -53z" />
    <glyph glyph-name="three" unicode="3" horiz-adv-x="530" 
d="M62 700l399 -13l18 -38l-193 -210l165 -41l59 -290l-252 -127l-238 78l31 78l214 -97l164 117l-39 190l-225 37l-16 39l211 197h-292z" />
    <glyph glyph-name="four" unicode="4" horiz-adv-x="551" 
d="M363 607l-263 -336l252 -20zM350 710l91 -12l-10 -442l98 15l2 -76l-98 -18l11 -180l-109 -8l21 204l-325 6l-11 60z" />
    <glyph glyph-name="five" unicode="5" horiz-adv-x="539" 
d="M99 710l370 -22l-2 -74l-306 7l-15 -186l193 19l180 -178l-80 -203l-175 -87l-234 53l15 85l196 -71l163 61l14 218l-118 47l-179 -33l-42 48z" />
    <glyph glyph-name="six" unicode="6" horiz-adv-x="540" 
d="M249 367l-127 -51l19 -220l164 -50l109 107l-22 168zM267 702l213 -38l-26 -84l-171 59l-120 -105l-46 -150l150 31l183 -44l50 -302l-224 -88l-226 89v272l32 229z" />
    <glyph glyph-name="seven" unicode="7" horiz-adv-x="483" 
d="M20 699l443 2l-8 -81l-147 -292l-103 -326h-83l111 352l134 266l-328 -3z" />
    <glyph glyph-name="eight" unicode="8" horiz-adv-x="571" 
d="M312 347l-90 1l-81 -111l5 -176l196 -12l104 76l-2 132zM363 652l-166 -6l-63 -78l31 -95l126 -58l128 115zM187 712l251 -42l50 -173l-115 -120l128 -63l20 -196l-191 -136l-246 44l-34 245l122 123l-73 51l-21 168z" />
    <glyph glyph-name="nine" unicode="9" horiz-adv-x="536" 
d="M296 279l119 72l-32 217l-132 77l-124 -72l-25 -209zM247 -23l-207 48l30 85l167 -71l125 97l55 148l-142 -52l-235 87l14 307l230 84l192 -125l10 -265l-47 -228z" />
    <glyph glyph-name="colon" unicode=":" horiz-adv-x="204" 
d="M56 478l88 4l30 -69l-56 -72l-88 55zM36 62l50 55l77 -20l2 -91l-87 -19z" />
    <glyph glyph-name="semicolon" unicode=";" horiz-adv-x="217" 
d="M57 478l87 4l31 -69l-56 -72l-89 55zM56 90l69 30l62 -52l-34 -90l-72 -90l-33 8l69 99l-48 9z" />
    <glyph glyph-name="less" unicode="&#x3c;" horiz-adv-x="502" 
d="M447 506l4 -52l-17 -26l-325 -170l373 -198l-26 -64l-446 234v42l52 36z" />
    <glyph glyph-name="equal" unicode="=" horiz-adv-x="540" 
d="M20 434h181l319 1l-9 -57h-322h-167zM21 276h175l312 1l3 -57h-326h-161z" />
    <glyph glyph-name="greater" unicode="&#x3e;" horiz-adv-x="502" 
d="M48 456l4 53l387 -199l53 -36v-43l-448 -235l-24 60l377 194l-332 181z" />
    <glyph glyph-name="question" unicode="?" horiz-adv-x="420" 
d="M20 678l189 35l171 -59l20 -127l-134 -138l-106 -159l8 -68h-45l-13 89l48 119l165 164l-30 77l-102 43l-160 -60zM132 74l62 -4l28 -45l-63 -50l-41 54z" />
    <glyph glyph-name="at" unicode="@" horiz-adv-x="838" 
d="M423 202l79 98l-7 56l-75 -9l-86 -53l-3 -92l34 -18q58 14 58 18zM808 347l-42 -89l-131 -105l-102 -10l-35 73l-40 -84l-142 -10l-64 59l3 134l151 99l88 13l-6 69l-116 16l-49 -62l-50 52l6 21l93 58l188 -45l18 -325l47 -21l106 119l7 162l-107 140l-211 58l-204 -82
l-122 -201l79 -237l198 -103l168 37l25 -71l-248 -29l-198 127l-88 274l136 250l186 83l160 8l168 -83l99 -126z" />
    <glyph glyph-name="A" unicode="A" horiz-adv-x="616" 
d="M608 39l7 -39h-194l-23 24l78 22l-31 141l-24 46l-248 -31l-16 -54l-15 -102l62 -22v-32l-201 15v32l61 15l186 652l109 -16l195 -636zM196 263l202 39l-85 311l-15 -8l-102 -325v-17z" />
    <glyph glyph-name="B" unicode="B" horiz-adv-x="602" 
d="M378 76l94 88l-5 95l-93 85l-140 -26l-16 -13l-6 -216l24 -19zM246 629l-38 -13l8 -205l11 -20l142 31l85 75l-63 134zM509 320l43 -166l-122 -154l-287 6l-108 1l-5 33l112 19l-17 575l-86 29l-7 33h115h1l140 4l158 -20l85 -202l-99 -105z" />
    <glyph glyph-name="C" unicode="C" horiz-adv-x="500" 
d="M239 62l186 8l32 -76l-241 -16l-155 101l-16 450l117 169l194 39l124 -84l-124 -164l-30 23l61 116l-54 48l-132 -31l-54 -140v-388z" />
    <glyph glyph-name="D" unicode="D" horiz-adv-x="656" 
d="M536 213l11 243l-132 148l-111 27l-74 -20l-6 -518l191 -19zM426 686l200 -213l-32 -321l-160 -160l-254 18l-150 -3l3 31l108 25l4 574l-70 27l4 36l99 5z" />
    <glyph glyph-name="E" unicode="E" horiz-adv-x="626" 
d="M575 146l1 -158l-520 7l-5 34l100 18l-34 596l-89 31l-8 35l538 -13l1 -129l-51 2l-15 63l-271 1l-19 -25l5 -215l308 -21l-9 -44l-296 -6l-3 -83l51 -170l253 -10l12 81z" />
    <glyph glyph-name="F" unicode="F" horiz-adv-x="547" 
d="M525 700l-33 -145h-39l-17 65l-244 8l8 -227l243 -8v-40l-251 -33l24 -269l82 -7l16 -49h-244l-7 32l55 8l-15 601l-66 25l-7 32h162z" />
    <glyph glyph-name="G" unicode="G" horiz-adv-x="589" 
d="M343 208l-11 47l163 -20l-3 -233l-342 -3l-120 157l121 481l165 64l135 1l88 -50l-108 -189l-46 9l55 136l-76 17l-163 -62l-75 -417l77 -63l162 -23l51 53l-4 80z" />
    <glyph glyph-name="H" unicode="H" horiz-adv-x="710" 
d="M611 638l-3 -580l66 -22l-6 -30l-226 1l-2 32l76 19l2 269h-325l-15 -269l79 -25l7 -40l-222 4l-3 28l76 28l-17 595l-68 25l4 29h223l7 -37l-69 -19l-2 -229l331 -39l10 261l-65 22l-9 27l211 14l9 -22z" />
    <glyph glyph-name="I" unicode="I" horiz-adv-x="282" 
d="M182 42l59 -22l2 -30l-191 15l-1 29l69 22l-17 599l-73 25l2 27l214 2l6 -36l-67 -20z" />
    <glyph glyph-name="J" unicode="J" horiz-adv-x="470" 
d="M440 673l-59 -24l-11 -542l-44 -178l-146 -80l-139 67l-41 143l82 27l30 -154l59 -3l93 66l30 154l-6 504l-77 26l3 30l221 1z" />
    <glyph glyph-name="K" unicode="K" horiz-adv-x="633" 
d="M502 108l131 -59l-61 -80l-131 78l-72 224l-84 66l-86 -27l-3 -261l68 -14l6 -39l-220 4l-3 27l67 20v595l-84 30l5 29h223l5 -37l-61 -17l2 -1l-5 -269l101 28l67 51l59 221l121 24l16 -60l-71 -14l-91 -225l-37 -28l62 -32z" />
    <glyph glyph-name="L" unicode="L" horiz-adv-x="479" 
d="M459 97l-6 -90l-396 -30l-2 21l55 34l-17 618l-63 21l4 27l219 1l5 -36l-59 -18l-2 -602l183 39l-13 67l91 11z" />
    <glyph glyph-name="M" unicode="M" horiz-adv-x="814" 
d="M713 47l71 -22l-5 -29l-212 1l-1 30l83 22l12 557l-12 2l-212 -591h-57l-198 576l-24 -2l30 -539l63 -20l6 -37l-207 4l-2 26l59 22l-8 612l-66 23l-3 23l165 -8l28 -45l182 -544l9 3l181 557l25 34h159v-32l-46 -11z" />
    <glyph glyph-name="N" unicode="N" horiz-adv-x="733" 
d="M603 58l73 -23l5 -36l-210 4l-3 25l50 20l-337 503l5 -502l51 -17l4 -37l-209 4l-2 25l82 32l-7 594l-65 18l1 29l217 2l4 -29l-57 -17l337 -515l10 516l-71 18l1 29l216 1l5 -27l-67 -21z" />
    <glyph glyph-name="O" unicode="O" horiz-adv-x="629" 
d="M356 620l-186 -6l-55 -206l50 -238l127 -109l84 -7l132 231l-50 238zM210 714l199 -18l134 -146l36 -285l-151 -272l-178 -6l-162 162l-38 252l53 239z" />
    <glyph glyph-name="P" unicode="P" horiz-adv-x="543" 
d="M264 637l-87 -27l12 -263l177 1l86 107l-55 150zM388 283l-205 -14v-216l60 -20l6 -36l-208 5l-2 24l71 28l-7 584l-34 27l-39 5l5 37l83 3l46 -24l92 8l214 -43l43 -246z" />
    <glyph glyph-name="Q" unicode="Q" horiz-adv-x="628" 
d="M176 173l119 -78l106 5l107 192l-8 216l-68 99l-218 29l-78 -124l-15 -241zM490 15l108 -12l-22 -73l-125 30l-65 57l-161 -4l-175 197l10 340l131 146l225 4l135 -118l45 -316l-142 -229z" />
    <glyph glyph-name="R" unicode="R" horiz-adv-x="713" 
d="M421 383l89 95l-36 129l-147 26l-103 -16l17 -222zM650 189l63 -66l-124 -111l-78 13l-53 235l-94 69l-130 -19l3 -248l63 -21l8 -38l-215 3l-2 27l59 23l-12 529l-36 39l-72 8l3 54l82 2l42 -17l25 22l272 -4l126 -116l-18 -167l-87 -66l74 -71l7 -180l22 -8z" />
    <glyph glyph-name="S" unicode="S" horiz-adv-x="578" 
d="M163 686l246 18l63 -43l28 39l53 -42l-94 -113l-38 35l-48 62l-150 -24l-79 -80l61 -113l259 -68l61 -75l-18 -195l-207 -96l-183 50l-31 -50l-61 14l61 134l51 -15l158 -51l156 62l-30 155l-307 63l-57 209z" />
    <glyph glyph-name="T" unicode="T" horiz-adv-x="575" 
d="M170 699h386l-15 -110l-55 15v39h-166l23 -598l49 -15v-39l-205 7v25l70 22l-8 598h-55l-101 -15v-39l-64 -8l-8 118h149z" />
    <glyph glyph-name="U" unicode="U" horiz-adv-x="696" 
d="M666 709l-4 -36l-55 -19l-19 -535l-101 -119l-256 -10l-117 126l-23 498l-5 42l-56 15l1 29l211 2l3 -29l-66 -20l3 -481l63 -101l207 7l61 87l-8 495l-47 15l1 27z" />
    <glyph glyph-name="V" unicode="V" horiz-adv-x="642" 
d="M642 691l-11 -36l-66 -12l-199 -652l-86 10l-229 664l-51 13l3 29l217 2l6 -28l-65 -19l163 -589h19l139 587l-57 31l7 26z" />
    <glyph glyph-name="W" unicode="W" horiz-adv-x="938" 
d="M712 713l226 -16l-3 -29l-68 -14l-7 -3l-163 -664h-100l-121 558l-3 28h-3l-4 -27l-110 -551h-117l-171 662l-68 19v29h224v-29l-62 -19l121 -577l18 -3l134 597h72l137 -609h15l124 593l-72 26z" />
    <glyph glyph-name="X" unicode="X" horiz-adv-x="671" 
d="M663 35l8 -38l-212 -6l-4 27l47 21l-125 224l-44 70l-159 -294l49 -17l-3 -29l-219 1l-1 31l72 20l225 341l-188 276l-62 19l1 29l217 1l5 -27l-54 -19l120 -224l18 -29l144 246l-50 27l4 25l211 -15l-7 -38l-75 -15l-197 -274v-2l200 -311z" />
    <glyph glyph-name="Y" unicode="Y" horiz-adv-x="630" 
d="M329 60l67 -21l5 -37l-210 4l-2 24l71 28l-3 249l-203 346l-54 21l3 26l210 4l-7 -37l-35 -12l130 -266l171 273l-64 17l2 30l215 1l5 -29l-82 -26l-225 -341z" />
    <glyph glyph-name="Z" unicode="Z" horiz-adv-x="560" 
d="M50 594l16 121l53 -18l395 7l8 -66l-383 -544l22 -19l262 18l8 54l82 6l17 -140l-487 -11l-13 73l383 548l-271 3l-17 -48z" />
    <glyph glyph-name="bracketleft" unicode="[" 
d="M272 820v-84l-132 6l-8 -472l24 -415h116l6 -59h-39h-179l12 470l-2 542l80 -4z" />
    <glyph glyph-name="backslash" unicode="\" horiz-adv-x="335" 
d="M68 545l-68 162l63 16l272 -744l-69 -6z" />
    <glyph glyph-name="bracketright" unicode="]" horiz-adv-x="265" 
d="M0 816l197 -17l8 -30l-21 -400l13 -569l-92 10h-96v59l132 -13l-22 504l-13 398l-97 -11z" />
    <glyph glyph-name="asciicircum" unicode="^" horiz-adv-x="358" 
d="M96 510l-16 -30h-80l137 233l70 -4l151 -229h-76l-113 161z" />
    <glyph glyph-name="underscore" unicode="_" horiz-adv-x="335" 
d="M0 -52q172 -8 182 -8l153 8l-10 -59l-153 -2l-168 -12z" />
    <glyph glyph-name="grave" unicode="`" horiz-adv-x="134" 
d="M134 571h-43l-42 63l-49 76l44 -3l47 3z" />
    <glyph glyph-name="a" unicode="a" horiz-adv-x="519" 
d="M332 262l-85 -3l-112 -75l-3 -112l40 -21h3t8.5 0.5t12.5 1t13.5 1t13.5 1t11.5 1t8.5 1.5t3 2l93 130zM78 456l105 73l226 -53l4 -411l85 -6l1 -46l-124 -12l-42 88l-52 -82l-169 -32l-62 75l4 152l171 111l106 14l8 109l-167 22l-49 -85l-55 58z" />
    <glyph glyph-name="b" unicode="b" horiz-adv-x="539" 
d="M295 425l-118 -41l-4 -293l131 -31l116 156l-27 177zM30 712l78 58l41 -83l24 -234l132 36l151 -57l53 -222l-135 -202l-228 9l-56 48l-5 577z" />
    <glyph glyph-name="c" unicode="c" horiz-adv-x="430" 
d="M386 82l24 -78l-155 -8l-195 64l-8 247l85 171l141 48l108 -62l-54 -141l-31 16l31 93l-39 32l-117 -55l-54 -124l15 -179l118 -46z" />
    <glyph glyph-name="d" unicode="d" horiz-adv-x="550" 
d="M353 182l5 217l-117 44l-107 -35l-26 -196l89 -147l57 13zM550 18l-160 -13l-41 91l-66 -89l-152 9l-101 202l60 234l145 58l134 -55l5 250l63 75l56 -46l-42 -35l-17 -637l96 18z" />
    <glyph glyph-name="e" unicode="e" horiz-adv-x="505" 
d="M135 264l1 4l234 37l-28 131l-67 25l-131 -44zM198 514l141 -11l80 -70l29 -172l-313 -50l54 -159l118 3l140 42l8 -79l-282 -40l-123 182l14 257z" />
    <glyph glyph-name="f" unicode="f" horiz-adv-x="364" 
d="M230 658l-49 -65l-1 -106l137 19l6 -53l-142 -15l16 -386l58 -1l16 -48l-197 3l-5 33l48 7l-9 336l1 39l-69 9l3 36l60 19l1 129l99 107l161 -26l-17 -55z" />
    <glyph glyph-name="g" unicode="g" horiz-adv-x="509" 
d="M151 411l-33 -73l75 -103l144 -24l62 118l-37 92l-142 22zM181 159l-37 28l-20 -112l208 -11l69 -7l46 -140l-354 -89l-53 125l70 -16l5 -55l253 86l-15 31l-280 33l-27 70l42 131l-37 45l3 112l100 103l165 3l19 -15l130 85l11 -47l-93 -72l23 -17l67 -83l-75 -191z" />
    <glyph glyph-name="h" unicode="h" horiz-adv-x="587" 
d="M553 140l54 -47l-117 -120l-84 37l-11 349l-69 77l-142 -131v-259l73 -22l6 -29l-195 -1l-6 30l38 15l15 592l-65 57l75 51l65 -103l-11 -264l105 142l132 -39l61 -113l-14 -318l21 -14z" />
    <glyph glyph-name="i" unicode="i" 
d="M254 15l4 -28l-200 -2l-5 29l53 21l4 423l-73 25l-7 25l208 12l10 -20l-61 -34l-4 -430zM197 616l-76 -32l-34 68l41 39l64 -8z" />
    <glyph glyph-name="j" unicode="j" 
d="M258 494l-66 -36l-8 -450l-49 -111l-200 -76l-5 71l152 44l29 129l-5 396l-53 17l-7 26l204 11zM204 657l-58 -78l-53 53l18 67h64z" />
    <glyph glyph-name="k" unicode="k" horiz-adv-x="506" 
d="M441 77l65 -41l-41 -65l-84 52l-139 222l-44 -22v-182l76 -22l6 -28l-199 -5l-4 30l48 20l-20 626l-55 15l2 27l215 5l-3 -39l-68 -15l2 -381l40 15l81 107l68 125l58 -18l-76 -143l-70 -94z" />
    <glyph glyph-name="l" unicode="l" horiz-adv-x="294" 
d="M259 39l5 -38l-211 4l-3 26l72 21v600l-53 -11l4 66l127 3l-9 -657z" />
    <glyph glyph-name="m" unicode="m" horiz-adv-x="881" 
d="M867 169l44 -53l-125 -116l-82 15l-9 399l-61 38l-144 -101l8 -41l10 -255l50 -24l-5 -24l-183 -5l4 26l50 24l-6 338l-41 64l-90 -43l-97 -96l9 -261l63 -21l-5 -36l-190 2l-3 28l45 18l7 393l-76 51l44 74l85 -68l6 -102l131 104l154 -5l18 -94l159 99l105 -18l37 -81
l-15 -328l27 -2z" />
    <glyph glyph-name="n" unicode="n" horiz-adv-x="638" 
d="M598 132l53 -61l-167 -84l-60 31v304l-31 91l-76 8l-115 -167v-205l54 -16l-8 -38l-182 8l-8 22l53 24v364l-67 38l52 69l92 -99l14 -92l100 160l129 -7l76 -137l-16 -267l16 -14z" />
    <glyph glyph-name="o" unicode="o" horiz-adv-x="499" 
d="M289 451l-102 8l-88 -114l19 -197l111 -105l75 1l94 184l-42 173zM155 526h168l106 -98l40 -229l-141 -221l-140 -6l-147 177l-11 228z" />
    <glyph glyph-name="p" unicode="p" horiz-adv-x="564" 
d="M415 149l28 101l-55 161l-112 15l-104 -37l6 -259l104 -40zM442 490l92 -258l-104 -181l-161 -31l-101 46l5 -225l67 -23l-4 -39l-202 1l-4 30l62 25l-6 625l-34 12l34 66l87 -45l-7 -40l105 39z" />
    <glyph glyph-name="q" unicode="q" horiz-adv-x="540" 
d="M474 -154l56 -16v-40h-201l-8 32l64 24l9 208l-25 9l-96 -56l-160 31l-79 193l87 264l168 24l176 -48l-15 -81zM313 103l64 47l-8 274l-88 23l-111 -23l-57 -138l16 -112l97 -97z" />
    <glyph glyph-name="r" unicode="r" horiz-adv-x="415" 
d="M324 496l71 -84l-61 -52l-53 77l-81 -27l-24 -53l4 -300l59 -19l-6 -35h-177l-3 27l47 19l-1 400l-49 28l43 55l73 -47l6 -34l51 20z" />
    <glyph glyph-name="s" unicode="s" horiz-adv-x="473" 
d="M83 494l165 28l112 -46l40 39l43 -30l-76 -102l-36 34l-164 39l-53 -62l69 -97l201 -50l28 -170l-132 -82l-176 40l-24 -41l-50 9l34 105l204 -48l63 47l-24 84l-214 73l-58 119z" />
    <glyph glyph-name="t" unicode="t" horiz-adv-x="375" 
d="M354 86v-55l-164 -31l-78 77v103v258l-48 -8l-39 -9l-7 48l71 23h14v94l-14 32h85l8 -87v-32l140 17v-78l-140 7v-329l47 -53z" />
    <glyph glyph-name="u" unicode="u" horiz-adv-x="600" 
d="M576 130l44 -76l-147 -70l-56 15l-18 58l-13 69l-177 -141l-104 36l-30 118l-3 308l-42 18l3 24l179 4l-5 -36l-52 -21v-282l37 -89l65 36l121 67l16 278l-44 20l3 27h158l5 -34l-52 -20l-3 -371l15 -25z" />
    <glyph glyph-name="v" unicode="v" horiz-adv-x="522" 
d="M522 484l-13 -33l-54 -9l-164 -455l-95 3l-151 478l-45 13l3 27l176 2l3 -27l-51 -19l105 -392l29 6l117 390l-37 26l7 24z" />
    <glyph glyph-name="w" unicode="w" horiz-adv-x="675" 
d="M467 56h7l89 408l-51 21l3 29l160 -18l-4 -29l-44 -7l-107 -480h-94l-84 353l-3 22h-2l-2 -21l-78 -348h-92l-123 476l-42 15v29h160v-29l-44 -15l86 -399l10 -2l101 416l52 -3z" />
    <glyph glyph-name="x" unicode="x" horiz-adv-x="468" 
d="M464 25l4 -33h-169l-3 26l32 12l-79 147l-28 57l-97 -197l54 -19l-4 -28l-172 2l-2 28l33 9l153 253l-132 180l-49 16l1 28h174l3 -25l-43 -17l94 -153l88 158l-32 18l6 23l168 -17l-8 -32l-63 -16l-119 -195l142 -208z" />
    <glyph glyph-name="y" unicode="y" horiz-adv-x="509" 
d="M509 484l-55 -20l-212 -611l-115 -49l-125 65l27 66l105 -66l55 15l29 82l26 88l-52 -28l-135 418l-45 4l-12 42l131 12l45 -207l76 -219l124 392l-46 14l1 26l172 1z" />
    <glyph glyph-name="z" unicode="z" horiz-adv-x="482" 
d="M75 514l47 -11l301 11l3 -78l-291 -375l213 21l11 60l82 6l1 -145l-402 7l8 64l283 366l-202 12l-19 -42l-37 7z" />
    <glyph glyph-name="braceleft" unicode="{" horiz-adv-x="293" 
d="M176 809l111 3l-8 -68l-63 15l-54 -55l47 -312l-83 -68l59 -57l-19 -401l113 2l14 -60l-175 -8l-19 52l19 377l-68 89v28l63 56l5 252l-13 87z" />
    <glyph glyph-name="bar" unicode="|" horiz-adv-x="208" 
d="M60 728l78 -16l10 -416l-12 -536l-64 -7l8 545z" />
    <glyph glyph-name="braceright" unicode="}" horiz-adv-x="289" 
d="M161 -197l-155 -3l4 68l93 -15l27 55l-53 343l84 68l-63 88l15 347l-103 -2l-10 59l151 6l42 -50l-24 -354l70 -88v-29l-67 -54l3 -285l12 -85z" />
    <glyph glyph-name="asciitilde" unicode="~" horiz-adv-x="525" 
d="M90 258l-90 11l57 131l115 29l196 -106l67 10l13 89l77 4l-31 -107l-70 -60l-74 -9l-189 116l-63 -11z" />
    <glyph glyph-name="nbspace" unicode="&#xa0;" horiz-adv-x="320" 
 />
    <glyph glyph-name="exclamdown" unicode="&#xa1;" horiz-adv-x="211" 
d="M156 434l-74 -21l-32 38l12 56l65 2zM154 -182l-94 -5l17 208l-2 322l54 6l32 -486z" />
    <glyph glyph-name="cent" unicode="&#xa2;" horiz-adv-x="490" 
d="M433 76l23 -74l-178 -13l-184 51l-44 249l111 190l139 48l170 -62l-58 -143l-31 11l31 100l-101 30l-111 -57l-61 -131l44 -189l105 -14zM256 575l67 -5l-8 -88l3 -379l2 -220h-72l19 242l-4 312z" />
    <glyph glyph-name="sterling" unicode="&#xa3;" horiz-adv-x="487" 
d="M441 90l16 -86l-427 19v44l40 4l96 168l-17 78l-104 -4l2 54l89 5l-12 54l17 184l149 83l150 -45l-22 -82l-110 54l-85 -34l-3 -197l1 -13l60 4l83 9l-4 -69l-101 -1l-29 -1l16 -102l-114 -134z" />
    <glyph glyph-name="currency" unicode="&#xa4;" horiz-adv-x="566" 
d="M325 198l69 75l-1 109l-80 68l-114 -7l-46 -94l7 -79l75 -68zM455 259l-24 -29l77 -85l-46 -49l-20 35l-48 58l-45 -53l-132 -3l-46 39l-71 -76l-50 46l75 69l-27 23l-9 87l31 119l-63 57l36 55l65 -61l49 28l149 -10l36 -35l75 82l49 -46l-83 -76l21 -18z" />
    <glyph glyph-name="yen" unicode="&#xa5;" horiz-adv-x="635" 
d="M635 674l-86 -27l-170 -287l129 8l-3 -57l-163 -14v-38l157 -4v-67l-155 4v-136l70 -22l6 -39l-221 4l-4 27l75 29l3 138l-161 7l-9 53l170 6v31l-4 8l-163 9l2 56l127 -8l-175 299l-60 10l2 27l221 4l-5 -39l-39 -13l140 -267l150 278l-67 18l1 31l228 1z" />
    <glyph glyph-name="brokenbar" unicode="&#xa6;" horiz-adv-x="208" 
d="M60 728l78 -16l10 -416v-9l-26 1l-42 1v9zM136 -240l-64 -7l6 459h68z" />
    <glyph glyph-name="section" unicode="&#xa7;" horiz-adv-x="468" 
d="M273 338l-81 28l-49 -39l-14 -50l22 -65l136 -58l42 44l13 74zM406 662l-12 -60l-136 29l-99 -29l-15 -105l141 -83l126 -96l16 -97l-87 -99l85 -77l3 -85l-106 -109l-184 1l-86 50l32 64l101 -52l119 9l36 60l-17 64l-138 77l-120 62l-25 106l48 85l40 23l-59 64l15 146
l97 66l102 13z" />
    <glyph glyph-name="dieresis" unicode="&#xa8;" horiz-adv-x="268" 
d="M206 686l62 -13l-4 -54l-56 -24l-30 60zM29 694l64 -26l4 -48l-68 -23l-29 53z" />
    <glyph glyph-name="copyright" unicode="&#xa9;" horiz-adv-x="775" 
d="M502 644l-293 -18l-103 -205l-2 -200l191 -159l227 3l166 175l-9 260zM260 707l290 -19l193 -163l2 -308l-207 -214l-257 -5l-235 177l-16 186l78 265zM522 210l23 -79l-138 -9l-175 55l-6 219l80 154l122 44l97 -58l-51 -124l-28 9l23 76l-36 28l-81 -19l-46 -124
l-5 -152l111 -46z" />
    <glyph glyph-name="ordfeminine" unicode="&#xaa;" horiz-adv-x="324" 
d="M186 548l-45 -8l-58 -38l-5 -51l23 -10q43 1 43 4l46 66zM45 670l62 42l134 -31l2 -241l51 -4v-27l-73 -7l-24 52l-31 -49l-100 -18l-36 44l2 89l100 64l52 9l6 64l-81 10l-36 -48l-31 35z" />
    <glyph glyph-name="guillemotleft" unicode="&#xab;" horiz-adv-x="434" 
d="M220 479l29 -26l-149 -208l159 -203l-30 -23l-219 219l2 39zM384 474l21 -18l-124 -206l143 -209l-32 -19l-214 212l5 33z" />
    <glyph glyph-name="logicalnot" unicode="&#xac;" horiz-adv-x="410" 
d="M319 367h71l-6 -178l-68 4l7 105l-120 4h-178l-5 69l152 -3l147 -2v1z" />
    <glyph glyph-name="uni00AD" unicode="&#xad;" horiz-adv-x="360" 
d="M20 371l152 -3l168 -2l-6 -78l-131 4h-178z" />
    <glyph glyph-name="registered" unicode="&#xae;" horiz-adv-x="816" 
d="M522 644l-290 -18l-106 -205l-2 -200l193 -159l225 3l168 175l-9 260zM280 707l290 -19l193 -163l3 -308l-208 -214l-257 -5l-235 177l-16 186l78 265zM437 355l66 80l-23 88l-99 16l-11 -12l11 -145zM535 297l51 -115l-69 -34l-55 131l-51 30l-32 6l2 -158l42 -14l4 -23
l-149 5l-2 18l39 14l-7 354l-12 76h30h150l85 -85l-14 -111l-60 -46z" />
    <glyph glyph-name="macron" unicode="&#xaf;" horiz-adv-x="249" 
d="M0 664l124 -2l125 -2l-4 -58l-98 3h-143z" />
    <glyph glyph-name="degree" unicode="&#xb0;" horiz-adv-x="327" 
d="M191 657l-77 -8l-37 -107l54 -60l96 29l22 100zM90 697l143 5l64 -72l-12 -143l-140 -64l-101 71l-14 108z" />
    <glyph glyph-name="plusminus" unicode="&#xb1;" horiz-adv-x="449" 
d="M333 398l96 -6v-63l-88 5h-88l-2 -57l2 -126l-52 -1l-8 121l1 62h-68h-106v62l113 -5l64 2l1 38l-6 131l62 -4l3 -126l-3 -36zM221 110l-177 4l6 -67h196l173 -6l4 68z" />
    <glyph glyph-name="twosuperior" unicode="&#xb2;" horiz-adv-x="270" 
d="M30 670l95 37l107 -62l-28 -126l-101 -86h137l-3 -46l-203 -3l-4 49l118 121l30 75l-49 19l-85 -24z" />
    <glyph glyph-name="threesuperior" unicode="&#xb3;" horiz-adv-x="298" 
d="M48 698l179 -5l7 -18l-86 -92l89 -14l31 -139l-115 -81l-123 64l24 54l86 -61l71 52l-16 84l-102 4l-6 30l62 74l-98 5z" />
    <glyph glyph-name="acute" unicode="&#xb4;" horiz-adv-x="134" 
d="M43 570h-43l43 139l47 -3l44 3l-49 -76z" />
    <glyph glyph-name="mu" unicode="&#xb5;" horiz-adv-x="600" 
d="M213 -191l5 -38l-211 4l-3 26l72 21v323l-1 4l-3 308l-42 18l3 24l179 4l-5 -36l-52 -21v-282l37 -89l65 36l121 67l16 278l-44 20l3 27h158l5 -34l-52 -20l-3 -371l15 -25l100 87l44 -76l-147 -70l-56 15l-18 58l-13 69l-177 -141l-62 21l-2 -193z" />
    <glyph glyph-name="paragraph" unicode="&#xb6;" horiz-adv-x="572" 
d="M512 693l-15 -313l11 -590l-75 -5l-3 217l8 620l-92 10l-3 -188l9 -662l-82 -8l11 139l3 273l-109 16l-145 151l38 259l225 94z" />
    <glyph glyph-name="periodcentered" unicode="&#xb7;" horiz-adv-x="329" 
d="M100 342l50 55l77 -20l2 -91l-87 -19z" />
    <glyph glyph-name="cedilla" unicode="&#xb8;" horiz-adv-x="193" 
d="M111 28l40 -8l-24 -60l66 -31l-31 -90l-75 -38l-87 18l23 53l41 -27l50 30l-1 44l-69 24z" />
    <glyph glyph-name="onesuperior" unicode="&#xb9;" horiz-adv-x="214" 
d="M30 681l83 21l49 -12l2 -326l-60 -7v292l-62 -27z" />
    <glyph glyph-name="ordmasculine" unicode="&#xba;" horiz-adv-x="366" 
d="M210 657l-78 -8l-26 -52l-9 -80l69 -61l90 42l11 113zM108 697l143 5l65 -72l-12 -167l-139 -65l-101 71l-14 133z" />
    <glyph glyph-name="guillemotright" unicode="&#xbb;" horiz-adv-x="434" 
d="M185 453l29 26l208 -202l2 -39l-219 -219l-30 23l159 203zM29 456l21 18l201 -207l5 -33l-214 -212l-32 19l143 209z" />
    <glyph glyph-name="onequarter" unicode="&#xbc;" horiz-adv-x="635" 
d="M477 252l-96 -126h95zM474 329l65 -5l-5 -217l49 8l2 -39l-50 -8l5 -88l-73 -5l9 100l-168 1l-5 32zM446 656l-65 31l-60 -186l-217 -494l3 -7l61 -24l234 602zM50 701l83 21l49 -12l2 -326l-60 -7v292l-62 -27z" />
    <glyph glyph-name="onehalf" unicode="&#xbd;" horiz-adv-x="603" 
d="M446 656l-65 31l-60 -186l-216 -494l3 -7l59 -24l235 602zM50 701l83 21l49 -12l2 -326l-60 -7v292l-62 -27zM343 283l95 37l107 -62l-28 -126l-101 -86h137l-3 -46l-203 -3l-4 49l118 121l30 75l-49 19l-85 -24z" />
    <glyph glyph-name="threequarters" unicode="&#xbe;" horiz-adv-x="724" 
d="M566 252l-96 -126h95zM563 329l65 -5l-5 -217l49 8l2 -39l-50 -8l5 -88l-73 -5l9 100l-168 1l-5 32zM535 656l-65 31l-60 -186l-217 -494l3 -7l61 -24l234 602zM68 698l179 -5l7 -18l-86 -92l89 -14l31 -139l-115 -81l-123 64l24 54l86 -61l71 52l-16 84l-102 4l-6 30
l62 74l-98 5z" />
    <glyph glyph-name="questiondown" unicode="&#xbf;" horiz-adv-x="420" 
d="M400 -180l-189 -35l-171 59l-20 127l134 138l106 159l-8 68h45l13 -89l-48 -119l-165 -164l30 -77l102 -43l160 60zM288 424l-62 4l-28 45l63 50l41 -54z" />
    <glyph glyph-name="Agrave" unicode="&#xc0;" horiz-adv-x="616" 
d="M608 39l7 -39h-194l-23 24l78 22l-31 141l-24 46l-248 -31l-16 -54l-15 -102l62 -22v-32l-201 15v32l61 15l186 652l109 -16l195 -636zM196 263l202 39l-85 311l-15 -8l-102 -325v-17zM325 751h-43l-42 63l-49 76l44 -3l47 3z" />
    <glyph glyph-name="Aacute" unicode="&#xc1;" horiz-adv-x="616" 
d="M608 39l7 -39h-194l-23 24l78 22l-31 141l-24 46l-248 -31l-16 -54l-15 -102l62 -22v-32l-201 15v32l61 15l186 652l109 -16l195 -636zM196 263l202 39l-85 311l-15 -8l-102 -325v-17zM324 750h-43l43 139l47 -3l44 3l-49 -76z" />
    <glyph glyph-name="Acircumflex" unicode="&#xc2;" horiz-adv-x="616" 
d="M608 39l7 -39h-194l-23 24l78 22l-31 141l-24 46l-248 -31l-16 -54l-15 -102l62 -22v-32l-201 15v32l61 15l186 652l109 -16l195 -636zM196 263l202 39l-85 311l-15 -8l-102 -325v-17zM298 885v-1l170 -146l-50 1l-40 2l-77 78l-63 -83l-47 3l-43 8l149 138h1z" />
    <glyph glyph-name="Atilde" unicode="&#xc3;" horiz-adv-x="616" 
d="M608 39l7 -39h-194l-23 24l78 22l-31 141l-24 46l-248 -31l-16 -54l-15 -102l62 -22v-32l-201 15v32l61 15l186 652l109 -16l195 -636zM196 263l202 39l-85 311l-15 -8l-102 -325v-17zM227 755l-69 9l46 87l74 13l63 -68l24 9l10 51l61 2l-15 -64l-41 -45l-59 -9l-66 72
l-21 -9z" />
    <glyph glyph-name="Adieresis" unicode="&#xc4;" horiz-adv-x="616" 
d="M608 39l7 -39h-194l-23 24l78 22l-31 141l-24 46l-248 -31l-16 -54l-15 -102l62 -22v-32l-201 15v32l61 15l186 652l109 -16l195 -636zM196 263l202 39l-85 311l-15 -8l-102 -325v-17zM370 836l62 -13l-4 -54l-56 -24l-30 60zM193 844l64 -26l4 -48l-68 -23l-29 53z" />
    <glyph glyph-name="Aring" unicode="&#xc5;" horiz-adv-x="616" 
d="M259 839l94 3l42 -47l-8 -94l-27 -12l190 -639l59 -10l7 -39l-200 -3l-18 24l63 22l-30 134l-22 35l-242 -27l-10 -39l-18 -105l59 -23l4 -31l-200 17l-2 31l60 18l188 638l-19 14l-9 71zM206 259l182 35l-74 302l-18 -7l-93 -308zM326 803l-46 -6l-9 -58l25 -29l40 9
l18 53z" />
    <glyph glyph-name="AE" unicode="&#xc6;" horiz-adv-x="824" 
d="M412 310l-8 296l-100 -16l-94 -316l3 -22zM774 -5l-237 5l-132 9l13 46l-5 173l-242 -51l-9 -41l-20 -87l63 -18l5 -31l-205 2l-5 30l62 22l199 654l204 -20l293 -7l1 -126l-50 2l-14 61l-198 1l-18 -24l5 -208l233 -20l-9 -44l-221 -5l-3 -80l49 -164l180 -11l11 80
l49 4z" />
    <glyph glyph-name="Ccedilla" unicode="&#xc7;" horiz-adv-x="500" 
d="M239 62l186 8l32 -76l-241 -16l-155 101l-16 450l117 169l194 39l124 -84l-124 -164l-30 23l61 116l-54 48l-132 -31l-54 -140v-388zM270 28l40 -8l-24 -60l66 -31l-31 -90l-75 -38l-87 18l23 53l41 -27l50 30l-1 44l-69 24z" />
    <glyph glyph-name="Egrave" unicode="&#xc8;" horiz-adv-x="626" 
d="M575 146l1 -158l-520 7l-5 34l100 18l-34 596l-89 31l-8 35l538 -13l1 -129l-51 2l-15 63l-271 1l-19 -25l5 -215l308 -21l-9 -44l-296 -6l-3 -83l51 -170l253 -10l12 81zM360 751h-43l-42 63l-49 76l44 -3l47 3z" />
    <glyph glyph-name="Eacute" unicode="&#xc9;" horiz-adv-x="626" 
d="M575 146l1 -158l-520 7l-5 34l100 18l-34 596l-89 31l-8 35l538 -13l1 -129l-51 2l-15 63l-271 1l-19 -25l5 -215l308 -21l-9 -44l-296 -6l-3 -83l51 -170l253 -10l12 81zM329 750h-43l43 139l47 -3l44 3l-49 -76z" />
    <glyph glyph-name="Ecircumflex" unicode="&#xca;" horiz-adv-x="626" 
d="M575 146l1 -158l-520 7l-5 34l100 18l-34 596l-89 31l-8 35l538 -13l1 -129l-51 2l-15 63l-271 1l-19 -25l5 -215l308 -21l-9 -44l-296 -6l-3 -83l51 -170l253 -10l12 81zM303 905v-1l170 -146l-50 1l-40 2l-77 78l-63 -83l-47 3l-43 8l149 138h1z" />
    <glyph glyph-name="Edieresis" unicode="&#xcb;" horiz-adv-x="626" 
d="M575 146l1 -158l-520 7l-5 34l100 18l-34 596l-89 31l-8 35l538 -13l1 -129l-51 2l-15 63l-271 1l-19 -25l5 -215l308 -21l-9 -44l-296 -6l-3 -83l51 -170l253 -10l12 81zM385 866l62 -13l-4 -54l-56 -24l-30 60zM208 874l64 -26l4 -48l-68 -23l-29 53z" />
    <glyph glyph-name="Igrave" unicode="&#xcc;" horiz-adv-x="282" 
d="M182 42l59 -22l2 -30l-191 15l-1 29l69 22l-17 599l-73 25l2 27l214 2l6 -36l-67 -20zM178 761h-43l-42 63l-49 76l44 -3l47 3z" />
    <glyph glyph-name="Iacute" unicode="&#xcd;" horiz-adv-x="282" 
d="M182 42l59 -22l2 -30l-191 15l-1 29l69 22l-17 599l-73 25l2 27l214 2l6 -36l-67 -20zM147 760h-43l43 139l47 -3l44 3l-49 -76z" />
    <glyph glyph-name="Icircumflex" unicode="&#xce;" horiz-adv-x="282" 
d="M182 42l59 -22l2 -30l-191 15l-1 29l69 22l-17 599l-73 25l2 27l214 2l6 -36l-67 -20zM131 905v-1l170 -146l-50 1l-40 2l-77 78l-63 -83l-47 3l-43 8l149 138h1z" />
    <glyph glyph-name="Idieresis" unicode="&#xcf;" horiz-adv-x="282" 
d="M182 42l59 -22l2 -30l-191 15l-1 29l69 22l-17 599l-73 25l2 27l214 2l6 -36l-67 -20zM213 856l62 -13l-4 -54l-56 -24l-30 60zM36 864l64 -26l4 -48l-68 -23l-29 53z" />
    <glyph glyph-name="Eth" unicode="&#xd0;" horiz-adv-x="656" 
d="M60 400l83 -2l2 239l-70 27l4 36l99 5l248 -19l200 -213l-32 -321l-160 -160l-254 18l-150 -3l3 31l108 25l2 258h-78zM536 213l11 243l-132 148l-111 27l-74 -20l-3 -214l153 -2l-6 -78l-131 4h-17l-2 -228l191 -19z" />
    <glyph glyph-name="Ntilde" unicode="&#xd1;" horiz-adv-x="733" 
d="M603 58l73 -23l5 -36l-210 4l-3 25l50 20l-337 503l5 -502l51 -17l4 -37l-209 4l-2 25l82 32l-7 594l-65 18l1 29l217 2l4 -29l-57 -17l337 -515l10 516l-71 18l1 29l216 1l5 -27l-67 -21zM305 755l-69 9l46 87l74 13l63 -68l24 9l10 51l61 2l-15 -64l-41 -45l-59 -9
l-66 72l-21 -9z" />
    <glyph glyph-name="Ograve" unicode="&#xd2;" horiz-adv-x="629" 
d="M356 620l-186 -6l-55 -206l50 -238l127 -109l84 -7l132 231l-50 238zM210 714l199 -18l134 -146l36 -285l-151 -272l-178 -6l-162 162l-38 252l53 239zM331 761h-43l-42 63l-49 76l44 -3l47 3z" />
    <glyph glyph-name="Oacute" unicode="&#xd3;" horiz-adv-x="629" 
d="M356 620l-186 -6l-55 -206l50 -238l127 -109l84 -7l132 231l-50 238zM210 714l199 -18l134 -146l36 -285l-151 -272l-178 -6l-162 162l-38 252l53 239zM300 760h-43l43 139l47 -3l44 3l-49 -76z" />
    <glyph glyph-name="Ocircumflex" unicode="&#xd4;" horiz-adv-x="629" 
d="M356 620l-186 -6l-55 -206l50 -238l127 -109l84 -7l132 231l-50 238zM210 714l199 -18l134 -146l36 -285l-151 -272l-178 -6l-162 162l-38 252l53 239zM294 905v-1l170 -146l-50 1l-40 2l-77 78l-63 -83l-47 3l-43 8l149 138h1z" />
    <glyph glyph-name="Otilde" unicode="&#xd5;" horiz-adv-x="629" 
d="M356 620l-186 -6l-55 -206l50 -238l127 -109l84 -7l132 231l-50 238zM210 714l199 -18l134 -146l36 -285l-151 -272l-178 -6l-162 162l-38 252l53 239zM243 765l-69 9l46 87l74 13l63 -68l24 9l10 51l61 2l-15 -64l-41 -45l-59 -9l-66 72l-21 -9z" />
    <glyph glyph-name="Odieresis" unicode="&#xd6;" horiz-adv-x="629" 
d="M356 620l-186 -6l-55 -206l50 -238l127 -109l84 -7l132 231l-50 238zM210 714l199 -18l134 -146l36 -285l-151 -272l-178 -6l-162 162l-38 252l53 239zM366 856l62 -13l-4 -54l-56 -24l-30 60zM189 864l64 -26l4 -48l-68 -23l-29 53z" />
    <glyph glyph-name="multiply" unicode="&#xd7;" horiz-adv-x="441" 
d="M337 270l74 -83l-50 -50l-69 74l-72 72l-48 -45l-100 -102l-42 38l92 107l51 48l-56 56l-87 89l50 46l87 -94l56 -50l31 31l103 109l46 -54l-101 -102l-32 -30z" />
    <glyph glyph-name="Oslash" unicode="&#xd8;" horiz-adv-x="629" 
d="M482 707l-26 -62l87 -95l36 -285l-151 -272l-178 -6l-22 21l-12 -35l-69 6l29 81l-88 89l-38 252l53 239l107 74l199 -18l10 27zM356 620l-186 -6l-55 -206l50 -238l39 -34l170 466zM458 523l-38 36l-6 -14l-157 -454l35 -30l84 -7l132 231z" />
    <glyph glyph-name="Ugrave" unicode="&#xd9;" horiz-adv-x="696" 
d="M666 709l-4 -36l-55 -19l-19 -535l-101 -119l-256 -10l-117 126l-23 498l-5 42l-56 15l1 29l211 2l3 -29l-66 -20l3 -481l63 -101l207 7l61 87l-8 495l-47 15l1 27zM385 731h-43l-42 63l-49 76l44 -3l47 3z" />
    <glyph glyph-name="Uacute" unicode="&#xda;" horiz-adv-x="696" 
d="M666 709l-4 -36l-55 -19l-19 -535l-101 -119l-256 -10l-117 126l-23 498l-5 42l-56 15l1 29l211 2l3 -29l-66 -20l3 -481l63 -101l207 7l61 87l-8 495l-47 15l1 27zM364 730h-43l43 139l47 -3l44 3l-49 -76z" />
    <glyph glyph-name="Ucircumflex" unicode="&#xdb;" horiz-adv-x="696" 
d="M666 709l-4 -36l-55 -19l-19 -535l-101 -119l-256 -10l-117 126l-23 498l-5 42l-56 15l1 29l211 2l3 -29l-66 -20l3 -481l63 -101l207 7l61 87l-8 495l-47 15l1 27zM338 895v-1l170 -146l-50 1l-40 2l-77 78l-63 -83l-47 3l-43 8l149 138h1z" />
    <glyph glyph-name="Udieresis" unicode="&#xdc;" horiz-adv-x="696" 
d="M666 709l-4 -36l-55 -19l-19 -535l-101 -119l-256 -10l-117 126l-23 498l-5 42l-56 15l1 29l211 2l3 -29l-66 -20l3 -481l63 -101l207 7l61 87l-8 495l-47 15l1 27zM420 846l62 -13l-4 -54l-56 -24l-30 60zM243 854l64 -26l4 -48l-68 -23l-29 53z" />
    <glyph glyph-name="Yacute" unicode="&#xdd;" horiz-adv-x="630" 
d="M329 60l67 -21l5 -37l-210 4l-2 24l71 28l-3 249l-203 346l-54 21l3 26l210 4l-7 -37l-35 -12l130 -266l171 273l-64 17l2 30l215 1l5 -29l-82 -26l-225 -341zM311 730h-43l43 139l47 -3l44 3l-49 -76z" />
    <glyph glyph-name="Thorn" unicode="&#xde;" horiz-adv-x="645" 
d="M177 532l13 -326l248 -23l110 141l-57 202l-202 33zM459 114l-276 8v-89l64 -20l4 -38l-217 3l-4 27l76 28l-1 667l-49 11l-3 31l168 4l-1 -31l-48 -15l2 -88l106 8l288 -44l47 -306z" />
    <glyph glyph-name="agrave" unicode="&#xe0;" horiz-adv-x="519" 
d="M247 259l85 3l7 -73q-93 -128 -93 -130t-18.5 -4t-37.5 -3l-18 -1l-40 21l3 112zM183 529l-105 -73l-10 -25l55 -58l49 85l167 -22l-8 -109l-106 -14l-171 -111l-4 -152l62 -75l169 32l52 82l42 -88l124 12l-1 46l-85 6l-4 411zM291 561h-43l-42 63l-49 76l44 -3l47 3z
" />
    <glyph glyph-name="aacute" unicode="&#xe1;" horiz-adv-x="519" 
d="M247 259l85 3l7 -73q-93 -128 -93 -130t-18.5 -4t-37.5 -3l-18 -1l-40 21l3 112zM183 529l-105 -73l-10 -25l55 -58l49 85l167 -22l-8 -109l-106 -14l-171 -111l-4 -152l62 -75l169 32l52 82l42 -88l124 12l-1 46l-85 6l-4 411zM260 560h-43l43 139l47 -3l44 3l-49 -76z
" />
    <glyph glyph-name="acircumflex" unicode="&#xe2;" horiz-adv-x="519" 
d="M247 259l85 3l7 -73q-93 -128 -93 -130t-18.5 -4t-37.5 -3l-18 -1l-40 21l3 112zM183 529l-105 -73l-10 -25l55 -58l49 85l167 -22l-8 -109l-106 -14l-171 -111l-4 -152l62 -75l169 32l52 82l42 -88l124 12l-1 46l-85 6l-4 411zM244 715v-1l170 -146l-50 1l-40 2l-77 78
l-63 -83l-47 3l-43 8l149 138h1z" />
    <glyph glyph-name="atilde" unicode="&#xe3;" horiz-adv-x="519" 
d="M332 262l-85 -3l-112 -75l-3 -112l40 -21h3t8.5 0.5t12.5 1t13.5 1t13.5 1t11.5 1t8.5 1.5t3 2l93 130zM78 456l105 73l226 -53l4 -411l85 -6l1 -46l-124 -12l-42 88l-52 -82l-169 -32l-62 75l4 152l171 111l106 14l8 109l-167 22l-49 -85l-55 58zM184 575l-69 9l46 87
l74 13l63 -68l24 9l10 51l61 2l-15 -64l-41 -45l-59 -9l-66 72l-21 -9z" />
    <glyph glyph-name="adieresis" unicode="&#xe4;" horiz-adv-x="519" 
d="M247 259l85 3l7 -73q-93 -128 -93 -130t-18.5 -4t-37.5 -3l-18 -1l-40 21l3 112zM183 529l-105 -73l-10 -25l55 -58l49 85l167 -22l-8 -109l-106 -14l-171 -111l-4 -152l62 -75l169 32l52 82l42 -88l124 12l-1 46l-85 6l-4 411zM316 656l62 -13l-4 -54l-56 -24l-30 60z
M139 664l64 -26l4 -48l-68 -23l-29 53z" />
    <glyph glyph-name="aring" unicode="&#xe5;" horiz-adv-x="519" 
d="M332 262l-85 -3l-112 -75l-3 -112l40 -21h3t8.5 0.5t12.5 1t13.5 1t13.5 1t11.5 1t8.5 1.5t3 2l93 130zM78 456l105 73l226 -53l4 -411l85 -6l1 -46l-124 -12l-42 88l-52 -82l-169 -32l-62 75l4 152l171 111l106 14l8 109l-167 22l-49 -85l-55 58zM283 683l-46 -6l-9 -58
l25 -29l40 9l18 53zM216 719l94 3l42 -47l-8 -94l-92 -42l-66 47l-9 71z" />
    <glyph glyph-name="ae" unicode="&#xe6;" horiz-adv-x="722" 
d="M238 73l89 124l-9 68l-79 -1l-109 -73l-3 -106l38 -21q73 2 73 9zM394 408l-9 -151l2 4l178 23l7 114l-67 56zM672 44l-153 -57l-151 46l-29 84l-69 -95l-160 -31l-60 71l2 145l162 107l103 15l10 105l-162 20l-47 -83l-52 58l8 22l102 72l190 -52l82 34l122 -11l79 -97
l-7 -158l-246 -42l31 -116l20 -23l82 -14l78 47l38 43l19 -12z" />
    <glyph glyph-name="ccedilla" unicode="&#xe7;" horiz-adv-x="430" 
d="M386 82l24 -78l-155 -8l-195 64l-8 247l85 171l141 48l108 -62l-54 -141l-31 16l31 93l-39 32l-117 -55l-54 -124l15 -179l118 -46zM239 28l40 -8l-24 -60l66 -31l-31 -90l-75 -38l-87 18l23 53l41 -27l50 30l-1 44l-69 24z" />
    <glyph glyph-name="egrave" unicode="&#xe8;" horiz-adv-x="505" 
d="M136 268l-1 -4l9 153l131 44l67 -25l28 -131zM339 503l-141 11l-134 -97l-14 -257l123 -182l282 40l-8 79l-140 -42l-118 -3l-54 159l313 50l-29 172zM289 561h-43l-42 63l-49 76l44 -3l47 3z" />
    <glyph glyph-name="eacute" unicode="&#xe9;" horiz-adv-x="505" 
d="M136 268l-1 -4l9 153l131 44l67 -25l28 -131zM339 503l-141 11l-134 -97l-14 -257l123 -182l282 40l-8 79l-140 -42l-118 -3l-54 159l313 50l-29 172zM268 560h-43l43 139l47 -3l44 3l-49 -76z" />
    <glyph glyph-name="ecircumflex" unicode="&#xea;" horiz-adv-x="505" 
d="M136 268l-1 -4l9 153l131 44l67 -25l28 -131zM339 503l-141 11l-134 -97l-14 -257l123 -182l282 40l-8 79l-140 -42l-118 -3l-54 159l313 50l-29 172zM242 705v-1l170 -146l-50 1l-40 2l-77 78l-63 -83l-47 3l-43 8l149 138h1z" />
    <glyph glyph-name="edieresis" unicode="&#xeb;" horiz-adv-x="505" 
d="M136 268l-1 -4l9 153l131 44l67 -25l28 -131zM339 503l-141 11l-134 -97l-14 -257l123 -182l282 40l-8 79l-140 -42l-118 -3l-54 159l313 50l-29 172zM324 656l62 -13l-4 -54l-56 -24l-30 60zM147 664l64 -26l4 -48l-68 -23l-29 53z" />
    <glyph glyph-name="igrave" unicode="&#xec;" 
d="M254 15l4 -28l-200 -2l-5 29l53 21l4 423l-73 25l-7 25l208 12l10 -20l-61 -34l-4 -430zM171 571h-43l-42 63l-49 76l44 -3l47 3z" />
    <glyph glyph-name="iacute" unicode="&#xed;" 
d="M254 15l4 -28l-200 -2l-5 29l53 21l4 423l-73 25l-7 25l208 12l10 -20l-61 -34l-4 -430zM150 570h-43l43 139l47 -3l44 3l-49 -76z" />
    <glyph glyph-name="icircumflex" unicode="&#xee;" 
d="M254 15l4 -28l-200 -2l-5 29l53 21l4 423l-73 25l-7 25l208 12l10 -20l-61 -34l-4 -430zM134 705v-1l170 -146l-50 1l-40 2l-77 78l-63 -83l-47 3l-43 8l149 138h1z" />
    <glyph glyph-name="idieresis" unicode="&#xef;" 
d="M254 15l4 -28l-200 -2l-5 29l53 21l4 423l-73 25l-7 25l208 12l10 -20l-61 -34l-4 -430zM206 676l62 -13l-4 -54l-56 -24l-30 60zM29 684l64 -26l4 -48l-68 -23l-29 53z" />
    <glyph glyph-name="eth" unicode="&#xf0;" horiz-adv-x="518" 
d="M303 66l87 73l-5 129l-100 71l-84 -4l-88 -68l-1 -138l112 -64zM433 429l35 -323l-141 -118l-152 -6l-145 150v155l125 112l166 7l50 -45l-19 132l-69 93l-99 -92l-24 41l90 98l-19 23l-92 60l32 39l81 -42l36 -41l21 23l22 67l58 -25l-28 -80l-33 -29l81 -91z" />
    <glyph glyph-name="ntilde" unicode="&#xf1;" horiz-adv-x="638" 
d="M598 132l53 -61l-167 -84l-60 31v304l-31 91l-76 8l-115 -167v-205l54 -16l-8 -38l-182 8l-8 22l53 24v364l-67 38l52 69l92 -99l14 -92l100 160l129 -7l76 -137l-16 -267l16 -14zM249 555l-69 9l46 87l74 13l63 -68l24 9l10 51l61 2l-15 -64l-41 -45l-59 -9l-66 72
l-21 -9z" />
    <glyph glyph-name="ograve" unicode="&#xf2;" horiz-adv-x="499" 
d="M187 459l102 -8l67 -50l42 -173l-94 -184l-75 -1l-111 105l-19 197zM323 526h-168l-125 -149l11 -228l147 -177l140 6l141 221l-40 229zM276 571h-43l-42 63l-49 76l44 -3l47 3z" />
    <glyph glyph-name="oacute" unicode="&#xf3;" horiz-adv-x="499" 
d="M187 459l102 -8l67 -50l42 -173l-94 -184l-75 -1l-111 105l-19 197zM323 526h-168l-125 -149l11 -228l147 -177l140 6l141 221l-40 229zM255 570h-43l43 139l47 -3l44 3l-49 -76z" />
    <glyph glyph-name="ocircumflex" unicode="&#xf4;" horiz-adv-x="499" 
d="M187 459l102 -8l67 -50l42 -173l-94 -184l-75 -1l-111 105l-19 197zM323 526h-168l-125 -149l11 -228l147 -177l140 6l141 221l-40 229zM229 715v-1l170 -146l-50 1l-40 2l-77 78l-63 -83l-47 3l-43 8l149 138h1z" />
    <glyph glyph-name="otilde" unicode="&#xf5;" horiz-adv-x="499" 
d="M289 451l-102 8l-88 -114l19 -197l111 -105l75 1l94 184l-42 173zM155 526h168l106 -98l40 -229l-141 -221l-140 -6l-147 177l-11 228zM179 575l-69 9l46 87l74 13l63 -68l24 9l10 51l61 2l-15 -64l-41 -45l-59 -9l-66 72l-21 -9z" />
    <glyph glyph-name="odieresis" unicode="&#xf6;" horiz-adv-x="499" 
d="M187 459l102 -8l67 -50l42 -173l-94 -184l-75 -1l-111 105l-19 197zM323 526h-168l-125 -149l11 -228l147 -177l140 6l141 221l-40 229zM311 666l62 -13l-4 -54l-56 -24l-30 60zM134 674l64 -26l4 -48l-68 -23l-29 53z" />
    <glyph glyph-name="divide" unicode="&#xf7;" horiz-adv-x="461" 
d="M343 361l98 -6v-63l-90 5l-221 -1h-110l2 60l115 -3zM176 568l88 4l30 -69l-56 -72l-88 55zM156 152l50 55l77 -20l2 -91l-87 -19z" />
    <glyph glyph-name="oslash" unicode="&#xf8;" horiz-adv-x="499" 
d="M151 16l-30 -53l-59 16l49 85l-70 85l-11 228l125 149h168l34 -32l30 52l53 -26l-38 -67l27 -25l40 -229l-141 -221l-140 -6zM289 451l-102 8l-88 -114l19 -197l26 -25l175 305zM189 81l40 -38l75 1l94 184l-37 153z" />
    <glyph glyph-name="ugrave" unicode="&#xf9;" horiz-adv-x="600" 
d="M576 130l44 -76l-147 -70l-56 15l-18 58l-13 69l-177 -141l-104 36l-30 118l-3 308l-42 18l3 24l179 4l-5 -36l-52 -21v-282l37 -89l65 36l121 67l16 278l-44 20l3 27h158l5 -34l-52 -20l-3 -371l15 -25zM307 551h-43l-42 63l-49 76l44 -3l47 3z" />
    <glyph glyph-name="uacute" unicode="&#xfa;" horiz-adv-x="600" 
d="M576 130l44 -76l-147 -70l-56 15l-18 58l-13 69l-177 -141l-104 36l-30 118l-3 308l-42 18l3 24l179 4l-5 -36l-52 -21v-282l37 -89l65 36l121 67l16 278l-44 20l3 27h158l5 -34l-52 -20l-3 -371l15 -25zM286 550h-43l43 139l47 -3l44 3l-49 -76z" />
    <glyph glyph-name="ucircumflex" unicode="&#xfb;" horiz-adv-x="600" 
d="M576 130l44 -76l-147 -70l-56 15l-18 58l-13 69l-177 -141l-104 36l-30 118l-3 308l-42 18l3 24l179 4l-5 -36l-52 -21v-282l37 -89l65 36l121 67l16 278l-44 20l3 27h158l5 -34l-52 -20l-3 -371l15 -25zM270 705v-1l170 -146l-50 1l-40 2l-77 78l-63 -83l-47 3l-43 8
l149 138h1z" />
    <glyph glyph-name="udieresis" unicode="&#xfc;" horiz-adv-x="600" 
d="M576 130l44 -76l-147 -70l-56 15l-18 58l-13 69l-177 -141l-104 36l-30 118l-3 308l-42 18l3 24l179 4l-5 -36l-52 -21v-282l37 -89l65 36l121 67l16 278l-44 20l3 27h158l5 -34l-52 -20l-3 -371l15 -25zM342 656l62 -13l-4 -54l-56 -24l-30 60zM165 664l64 -26l4 -48
l-68 -23l-29 53z" />
    <glyph glyph-name="yacute" unicode="&#xfd;" horiz-adv-x="509" 
d="M509 484l-55 -20l-212 -611l-115 -49l-125 65l27 66l105 -66l55 15l29 82l26 88l-52 -28l-135 418l-45 4l-12 42l131 12l45 -207l76 -219l124 392l-46 14l1 26l172 1zM260 540h-43l43 139l47 -3l44 3l-49 -76z" />
    <glyph glyph-name="thorn" unicode="&#xfe;" horiz-adv-x="564" 
d="M415 149l28 101l-55 161l-112 15l-104 -37l6 -259l104 -40zM90 650l-62 25l4 30l202 1l4 -39l-67 -23l-1 -189l101 37l171 -2l92 -258l-104 -181l-161 -31l-101 46l5 -225l67 -23l-4 -39l-202 1l-4 30l62 25l-6 625z" />
    <glyph glyph-name="ydieresis" unicode="&#xff;" horiz-adv-x="509" 
d="M509 484l-55 -20l-212 -611l-115 -49l-125 65l27 66l105 -66l55 15l29 82l26 88l-52 -28l-135 418l-45 4l-12 42l131 12l45 -207l76 -219l124 392l-46 14l1 26l172 1zM316 656l62 -13l-4 -54l-56 -24l-30 60zM139 664l64 -26l4 -48l-68 -23l-29 53z" />
    <glyph glyph-name="Amacron" unicode="&#x100;" horiz-adv-x="616" 
d="M608 39l7 -39h-194l-23 24l78 22l-31 141l-24 46l-248 -31l-16 -54l-15 -102l62 -22v-32l-201 15v32l61 15l186 652l109 -16l195 -636zM196 263l202 39l-85 311l-15 -8l-102 -325v-17zM183 824l124 -2l125 -2l-4 -58l-98 3h-143z" />
    <glyph glyph-name="amacron" unicode="&#x101;" horiz-adv-x="519" 
d="M247 259l85 3l7 -73q-93 -128 -93 -130t-18.5 -4t-37.5 -3l-18 -1l-40 21l3 112zM183 529l-105 -73l-10 -25l55 -58l49 85l167 -22l-8 -109l-106 -14l-171 -111l-4 -152l62 -75l169 32l52 82l42 -88l124 12l-1 46l-85 6l-4 411zM130 644l124 -2l125 -2l-4 -58l-98 3h-143
z" />
    <glyph glyph-name="Abreve" unicode="&#x102;" horiz-adv-x="616" 
d="M608 39l7 -39h-194l-23 24l78 22l-31 141l-24 46l-248 -31l-16 -54l-15 -102l62 -22v-32l-201 15v32l61 15l186 652l109 -16l195 -636zM196 263l202 39l-85 311l-15 -8l-102 -325v-17zM181 890l110 -93l25 -19l102 121l66 -61l-160 -90h-33l-160 107z" />
    <glyph glyph-name="abreve" unicode="&#x103;" horiz-adv-x="519" 
d="M247 259l85 3l7 -73q-93 -128 -93 -130t-18.5 -4t-37.5 -3l-18 -1l-40 21l3 112zM183 529l-105 -73l-10 -25l55 -58l49 85l167 -22l-8 -109l-106 -14l-171 -111l-4 -152l62 -75l169 32l52 82l42 -88l124 12l-1 46l-85 6l-4 411zM128 700l110 -93l25 -19l102 121l66 -61
l-160 -90h-33l-160 107z" />
    <glyph glyph-name="Aogonek" unicode="&#x104;" horiz-adv-x="616" 
d="M608 39l7 -39h-194l-23 24l78 22l-31 141l-24 46l-248 -31l-16 -54l-15 -102l62 -22v-32l-201 15v32l61 15l186 652l109 -16l195 -636zM196 263l202 39l-85 311l-15 -8l-102 -325v-17zM525 0v10h91v-10l-111 -50l-30 -40l-1 -35l51 -25l60 10v-50l-84 -9l-75 38l-15 71
l54 70z" />
    <glyph glyph-name="aogonek" unicode="&#x105;" horiz-adv-x="519" 
d="M408 0v4l-33 -3l-42 88l-52 -82l-169 -32l-62 75l4 152l171 111l106 14l8 109l-167 22l-49 -85l-55 58l10 25l105 73l226 -53l4 -411l85 -6l1 -39v-20l-111 -50l-30 -40l-1 -35l51 -25l60 10v-50l-84 -9l-75 38l-15 71l54 70zM332 262l-85 -3l-112 -75l-3 -112l40 -21h3
t8.5 0.5t12.5 1t13.5 1t13.5 1t11.5 1t8.5 1.5t3 2l93 130z" />
    <glyph glyph-name="Cacute" unicode="&#x106;" horiz-adv-x="500" 
d="M239 62l186 8l32 -76l-241 -16l-155 101l-16 450l117 169l194 39l124 -84l-124 -164l-30 23l61 116l-54 48l-132 -31l-54 -140v-388zM262 760h-43l43 139l47 -3l44 3l-49 -76z" />
    <glyph glyph-name="cacute" unicode="&#x107;" horiz-adv-x="430" 
d="M386 82l24 -78l-155 -8l-195 64l-8 247l85 171l141 48l108 -62l-54 -141l-31 16l31 93l-39 32l-117 -55l-54 -124l15 -179l118 -46zM231 560h-43l43 139l47 -3l44 3l-49 -76z" />
    <glyph glyph-name="Ccaron" unicode="&#x10c;" horiz-adv-x="500" 
d="M239 62l186 8l32 -76l-241 -16l-155 101l-16 450l117 169l194 39l124 -84l-124 -164l-30 23l61 116l-54 48l-132 -31l-54 -140v-388zM266 751v1l-170 138l50 7l40 8l77 -88l63 73l47 -3l43 -8l-149 -128h-1z" />
    <glyph glyph-name="ccaron" unicode="&#x10d;" horiz-adv-x="430" 
d="M386 82l24 -78l-155 -8l-195 64l-8 247l85 171l141 48l108 -62l-54 -141l-31 16l31 93l-39 32l-117 -55l-54 -124l15 -179l118 -46zM235 541v1l-170 138l50 7l40 8l77 -88l63 73l47 -3l43 -8l-149 -128h-1z" />
    <glyph glyph-name="Dcaron" unicode="&#x10e;" horiz-adv-x="656" 
d="M536 213l11 243l-132 148l-111 27l-74 -20l-6 -518l191 -19zM426 686l200 -213l-32 -321l-160 -160l-254 18l-150 -3l3 31l108 25l4 574l-70 27l4 36l99 5zM318 731v1l-170 138l50 7l40 8l77 -88l63 73l47 -3l43 -8l-149 -128h-1z" />
    <glyph glyph-name="dcaron" unicode="&#x10f;" horiz-adv-x="650" 
d="M353 182l5 217l-117 44l-107 -35l-26 -196l89 -147l57 13zM550 18l-160 -13l-41 91l-66 -89l-152 9l-101 202l60 234l145 58l134 -55l5 250l63 75l56 -46l-42 -35l-17 -637l96 18zM589 712l-57 -25l10 -71l40 -7l-57 -82l27 -7l60 74l28 75z" />
    <glyph glyph-name="Dcroat" unicode="&#x110;" horiz-adv-x="656" 
d="M426 686l200 -213l-32 -321l-160 -160l-254 18l-150 -3l3 31l108 25l2 272h-76l-4 59l80 -2l2 245l-70 27l4 36l99 5zM536 213l11 243l-132 148l-111 27l-74 -20l-3 -220l85 -1l-4 -58l-81 2l-3 -241l191 -19z" />
    <glyph glyph-name="dcroat" unicode="&#x111;" horiz-adv-x="550" 
d="M550 18l-160 -13l-41 91l-66 -89l-152 9l-101 202l60 234l145 58l134 -55l2 117h-131l-5 79l138 -3l1 57l63 75l56 -46l-42 -35l-2 -52l106 -1l-6 -78l-102 3l-13 -509l96 18zM353 182l5 217l-117 44l-107 -35l-26 -196l89 -147l57 13z" />
    <glyph glyph-name="Emacron" unicode="&#x112;" horiz-adv-x="626" 
d="M575 146l1 -158l-520 7l-5 34l100 18l-34 596l-89 31l-8 35l538 -13l1 -129l-51 2l-15 63l-271 1l-19 -25l5 -215l308 -21l-9 -44l-296 -6l-3 -83l51 -170l253 -10l12 81zM188 824l124 -2l125 -2l-4 -58l-98 3h-143z" />
    <glyph glyph-name="emacron" unicode="&#x113;" horiz-adv-x="505" 
d="M136 268l-1 -4l9 153l131 44l67 -25l28 -131zM339 503l-141 11l-134 -97l-14 -257l123 -182l282 40l-8 79l-140 -42l-118 -3l-54 159l313 50l-29 172zM128 644l124 -2l125 -2l-4 -58l-98 3h-143z" />
    <glyph glyph-name="Edotaccent" unicode="&#x116;" horiz-adv-x="626" 
d="M575 146l1 -158l-520 7l-5 34l100 18l-34 596l-89 31l-8 35l538 -13l1 -129l-51 2l-15 63l-271 1l-19 -25l5 -215l308 -21l-9 -44l-296 -6l-3 -83l51 -170l253 -10l12 81zM368 786l-76 -32l-34 68l41 39l64 -8z" />
    <glyph glyph-name="edotaccent" unicode="&#x117;" horiz-adv-x="505" 
d="M135 264l1 4l234 37l-28 131l-67 25l-131 -44zM198 514l141 -11l80 -70l29 -172l-313 -50l54 -159l118 3l140 42l8 -79l-282 -40l-123 182l14 257zM317 586l-76 -32l-34 68l41 39l64 -8z" />
    <glyph glyph-name="Eogonek" unicode="&#x118;" horiz-adv-x="626" 
d="M575 146l1 -158l-520 7l-5 34l100 18l-34 596l-89 31l-8 35l538 -13l1 -129l-51 2l-15 63l-271 1l-19 -25l5 -215l308 -21l-9 -44l-296 -6l-3 -83l51 -170l253 -10l12 81zM365 0v10h91v-10l-111 -50l-30 -40l-1 -35l51 -25l60 10v-50l-84 -9l-75 38l-15 71l54 70z" />
    <glyph glyph-name="eogonek" unicode="&#x119;" horiz-adv-x="505" 
d="M198 514l141 -11l80 -70l29 -172l-313 -50l54 -159l118 3l140 42l8 -79l-76 -11l-105 -57l-30 -40l-1 -35l51 -25l60 10v-50l-84 -9l-75 38l-15 71l53 62l18 17l-78 -11l-123 182l14 257zM135 264l1 4l234 37l-28 131l-67 25l-131 -44z" />
    <glyph glyph-name="Ecaron" unicode="&#x11a;" horiz-adv-x="626" 
d="M575 146l1 -158l-520 7l-5 34l100 18l-34 596l-89 31l-8 35l538 -13l1 -129l-51 2l-15 63l-271 1l-19 -25l5 -215l308 -21l-9 -44l-296 -6l-3 -83l51 -170l253 -10l12 81zM323 741v1l-170 138l50 7l40 8l77 -88l63 73l47 -3l43 -8l-149 -128h-1z" />
    <glyph glyph-name="ecaron" unicode="&#x11b;" horiz-adv-x="505" 
d="M136 268l-1 -4l9 153l131 44l67 -25l28 -131zM339 503l-141 11l-134 -97l-14 -257l123 -182l282 40l-8 79l-140 -42l-118 -3l-54 159l313 50l-29 172zM262 541v1l-170 138l50 7l40 8l77 -88l63 73l47 -3l43 -8l-149 -128h-1z" />
    <glyph glyph-name="Gbreve" unicode="&#x11e;" horiz-adv-x="589" 
d="M343 208l-11 47l163 -20l-3 -233l-342 -3l-120 157l121 481l165 64l135 1l88 -50l-108 -189l-46 9l55 136l-76 17l-163 -62l-75 -417l77 -63l162 -23l51 53l-4 80zM198 890l110 -93l25 -19l102 121l66 -61l-160 -90h-33l-160 107z" />
    <glyph glyph-name="gbreve" unicode="&#x11f;" horiz-adv-x="509" 
d="M151 411l-33 -73l75 -103l144 -24l62 118l-37 92l-142 22zM181 159l-37 28l-20 -112l208 -11l69 -7l46 -140l-354 -89l-53 125l70 -16l5 -55l253 86l-15 31l-280 33l-27 70l42 131l-37 45l3 112l100 103l165 3l19 -15l130 85l11 -47l-93 -72l23 -17l67 -83l-75 -191z
M128 690l110 -93l25 -19l102 121l66 -61l-160 -90h-33l-160 107z" />
    <glyph glyph-name="Gcommaaccent" unicode="&#x122;" horiz-adv-x="589" 
d="M343 208l-11 47l163 -20l-3 -233l-342 -3l-120 157l121 481l165 64l135 1l88 -50l-108 -189l-46 9l55 136l-76 17l-163 -62l-75 -417l77 -63l162 -23l51 53l-4 80zM301 -20l-57 -25l10 -71l40 -7l-57 -82l27 -7l60 74l28 75z" />
    <glyph glyph-name="gcommaaccent" unicode="&#x123;" horiz-adv-x="509" 
d="M151 411l-33 -73l75 -103l144 -24l62 118l-37 92l-142 22zM181 159l-37 28l-20 -112l208 -11l69 -7l46 -140l-354 -89l-53 125l70 -16l5 -55l253 86l-15 31l-280 33l-27 70l42 131l-37 45l3 112l100 103l165 3l19 -15l130 85l11 -47l-93 -72l23 -17l67 -83l-75 -191z
M311 551l-57 -25l-51 43l28 75l60 74l27 -7l-57 -82l40 -7z" />
    <glyph glyph-name="hbar" unicode="&#x127;" horiz-adv-x="587" 
d="M45 580l68 -2l2 53l-65 57l75 51l65 -103l-2 -59h9l168 -2l-6 -78l-131 4h-42l-7 -219l105 142l132 -39l61 -113l-14 -228l21 -14l69 110l54 -47l-117 -120l-84 37l-11 259l-69 77l-142 -131v-169l73 -22l6 -29l-195 -1l-6 30l38 15l11 462h-61z" />
    <glyph glyph-name="Itilde" unicode="&#x128;" horiz-adv-x="282" 
d="M182 42l59 -22l2 -30l-191 15l-1 29l69 22l-17 599l-73 25l2 27l214 2l6 -36l-67 -20zM71 785l-69 9l46 87l74 13l63 -68l24 9l10 51l61 2l-15 -64l-41 -45l-59 -9l-66 72l-21 -9z" />
    <glyph glyph-name="itilde" unicode="&#x129;" 
d="M254 15l4 -28l-200 -2l-5 29l53 21l4 423l-73 25l-7 25l208 12l10 -20l-61 -34l-4 -430zM64 595l-69 9l46 87l74 13l63 -68l24 9l10 51l61 2l-15 -64l-41 -45l-59 -9l-66 72l-21 -9z" />
    <glyph glyph-name="Imacron" unicode="&#x12a;" horiz-adv-x="282" 
d="M182 42l59 -22l2 -30l-191 15l-1 29l69 22l-17 599l-73 25l2 27l214 2l6 -36l-67 -20zM16 834l124 -2l125 -2l-4 -58l-98 3h-143z" />
    <glyph glyph-name="imacron" unicode="&#x12b;" 
d="M254 15l4 -28l-200 -2l-5 29l53 21l4 423l-73 25l-7 25l208 12l10 -20l-61 -34l-4 -430zM9 654l124 -2l125 -2l-4 -58l-98 3h-143z" />
    <glyph glyph-name="Iogonek" unicode="&#x12e;" horiz-adv-x="282" 
d="M182 42l59 -22l2 -30l-191 15l-1 29l69 22l-17 599l-73 25l2 27l214 2l6 -36l-67 -20zM151 0v10h91v-10l-111 -50l-30 -40l-1 -35l51 -25l60 10v-50l-84 -9l-75 38l-15 71l54 70z" />
    <glyph glyph-name="iogonek" unicode="&#x12f;" 
d="M254 15l4 -28l-200 -2l-5 29l53 21l4 423l-73 25l-7 25l208 12l10 -20l-61 -34l-4 -430zM197 616l-76 -32l-34 68l41 39l64 -8zM155 0v10h91v-10l-111 -50l-30 -40l-1 -35l51 -25l60 10v-50l-84 -9l-75 38l-15 71l54 70z" />
    <glyph glyph-name="Idotaccent" unicode="&#x130;" horiz-adv-x="282" 
d="M182 42l59 -22l2 -30l-191 15l-1 29l69 22l-17 599l-73 25l2 27l214 2l6 -36l-67 -20zM196 776l-76 -32l-34 68l41 39l64 -8z" />
    <glyph glyph-name="dotlessi" unicode="&#x131;" 
d="M254 15l4 -28l-200 -2l-5 29l53 21l4 423l-73 25l-7 25l208 12l10 -20l-61 -34l-4 -430z" />
    <glyph glyph-name="ij" unicode="&#x133;" horiz-adv-x="546" 
d="M254 15l4 -28l-200 -2l-5 29l53 21l4 423l-73 25l-7 25l208 12l10 -20l-61 -34l-4 -430zM197 616l-76 -32l-34 68l41 39l64 -8zM526 494l-66 -36l-8 -450l-49 -111l-200 -76l-5 71l152 44l29 129l-5 396l-53 17l-7 26l204 11zM472 657l-58 -78l-53 53l18 67h64z" />
    <glyph glyph-name="Jcircumflex" unicode="&#x134;" horiz-adv-x="470" 
d="M381 649l59 24l-5 37l-221 -1l-3 -30l77 -26l6 -504l-30 -154l-93 -66l-59 3l-30 154l-82 -27l41 -143l139 -67l146 80l44 178zM315 915v-1l170 -146l-50 1l-40 2l-77 78l-63 -83l-47 3l-43 8l149 138h1z" />
    <glyph glyph-name="jcircumflex" unicode="&#x135;" 
d="M258 494l-66 -36l-8 -450l-49 -111l-200 -76l-5 71l152 44l29 129l-5 396l-53 17l-7 26l204 11zM139 705v-1l170 -146l-50 1l-40 2l-77 78l-63 -83l-47 3l-43 8l149 138h1z" />
    <glyph glyph-name="Kcommaaccent" unicode="&#x136;" horiz-adv-x="633" 
d="M502 108l131 -59l-61 -80l-131 78l-72 224l-84 66l-86 -27l-3 -261l68 -14l6 -39l-220 4l-3 27l67 20v595l-84 30l5 29h223l5 -37l-61 -17l2 -1l-5 -269l101 28l67 51l59 221l121 24l16 -60l-71 -14l-91 -225l-37 -28l62 -32zM353 0l-57 -25l10 -71l40 -7l-57 -82l27 -7
l60 74l28 75z" />
    <glyph glyph-name="kcommaaccent" unicode="&#x137;" horiz-adv-x="506" 
d="M441 77l65 -41l-41 -65l-84 52l-139 222l-44 -22v-182l76 -22l6 -28l-199 -5l-4 30l48 20l-20 626l-55 15l2 27l215 5l-3 -39l-68 -15l2 -381l40 15l81 107l68 125l58 -18l-76 -143l-70 -94zM309 -10l-57 -25l10 -71l40 -7l-57 -82l27 -7l60 74l28 75z" />
    <glyph glyph-name="kgreenlandic" unicode="&#x138;" horiz-adv-x="495" 
d="M427 84l68 -39l-42 -65l-84 51l-135 219l-74 -23l-2 -177l75 -23l6 -27l-198 -5l-6 29l50 21l-1 419l-54 17l2 25l202 3l-6 -37l-68 -14v-180l71 15l78 105l66 123l57 -18l-74 -140l-69 -92z" />
    <glyph glyph-name="Lacute" unicode="&#x139;" horiz-adv-x="479" 
d="M459 97l-6 -90l-396 -30l-2 21l55 34l-17 618l-63 21l4 27l219 1l5 -36l-59 -18l-2 -602l183 39l-13 67l91 11zM165 740h-43l43 139l47 -3l44 3l-49 -76z" />
    <glyph glyph-name="lacute" unicode="&#x13a;" horiz-adv-x="294" 
d="M259 39l5 -38l-211 4l-3 26l72 21v600l-53 -11l4 66l127 3l-9 -657zM153 750h-43l43 139l47 -3l44 3l-49 -76z" />
    <glyph glyph-name="Lcommaaccent" unicode="&#x13b;" horiz-adv-x="479" 
d="M459 97l-6 -90l-396 -30l-2 21l55 34l-17 618l-63 21l4 27l219 1l5 -36l-59 -18l-2 -602l183 39l-13 67l91 11zM276 -30l-57 -25l10 -71l40 -7l-57 -82l27 -7l60 74l28 75z" />
    <glyph glyph-name="lcommaaccent" unicode="&#x13c;" horiz-adv-x="294" 
d="M259 39l5 -38l-211 4l-3 26l72 21v600l-53 -11l4 66l127 3l-9 -657zM163 -20l-57 -25l10 -71l40 -7l-57 -82l27 -7l60 74l28 75z" />
    <glyph glyph-name="Lcaron" unicode="&#x13d;" horiz-adv-x="479" 
d="M459 97l-6 -90l-396 -30l-2 21l55 34l-17 618l-63 21l4 27l219 1l5 -36l-59 -18l-2 -602l183 39l-13 67l91 11zM302 687l57 25l51 -43l-28 -75l-60 -74l-27 7l57 82l-40 7z" />
    <glyph glyph-name="lcaron" unicode="&#x13e;" horiz-adv-x="370" 
d="M259 39l5 -38l-211 4l-3 26l72 21v600l-53 -11l4 66l127 3l-9 -657zM262 687l57 25l51 -43l-28 -75l-60 -74l-27 7l57 82l-40 7z" />
    <glyph glyph-name="ldot" unicode="&#x140;" horiz-adv-x="394" 
d="M259 39l5 -38l-211 4l-3 26l72 21v600l-53 -11l4 66l127 3l-9 -657zM294 407l-50 -55l42 -75l87 19l-2 91z" />
    <glyph glyph-name="Lslash" unicode="&#x141;" horiz-adv-x="479" 
d="M459 97l-6 -90l-396 -30l-2 21l55 34l-7 263l-102 -50l2 83l97 50l-7 272l-63 21l4 27l219 1l5 -36l-59 -18l-1 -216l114 59v-89l-114 -57l-1 -299l183 39l-13 67l91 11z" />
    <glyph glyph-name="lslash" unicode="&#x142;" horiz-adv-x="294" 
d="M259 39l5 -38l-211 4l-3 26l72 21v241l-73 -48l-4 73l77 46v288l-53 -11l4 66l127 3l-4 -302l84 50v-59l-85 -57l-4 -289z" />
    <glyph glyph-name="Nacute" unicode="&#x143;" horiz-adv-x="733" 
d="M603 58l73 -23l5 -36l-210 4l-3 25l50 20l-337 503l5 -502l51 -17l4 -37l-209 4l-2 25l82 32l-7 594l-65 18l1 29l217 2l4 -29l-57 -17l337 -515l10 516l-71 18l1 29l216 1l5 -27l-67 -21zM382 740h-43l43 139l47 -3l44 3l-49 -76z" />
    <glyph glyph-name="nacute" unicode="&#x144;" horiz-adv-x="638" 
d="M598 132l53 -61l-167 -84l-60 31v304l-31 91l-76 8l-115 -167v-205l54 -16l-8 -38l-182 8l-8 22l53 24v364l-67 38l52 69l92 -99l14 -92l100 160l129 -7l76 -137l-16 -267l16 -14zM305 540h-43l43 139l47 -3l44 3l-49 -76z" />
    <glyph glyph-name="Ncommaaccent" unicode="&#x145;" horiz-adv-x="733" 
d="M603 58l73 -23l5 -36l-210 4l-3 25l50 20l-337 503l5 -502l51 -17l4 -37l-209 4l-2 25l82 32l-7 594l-65 18l1 29l217 2l4 -29l-57 -17l337 -515l10 516l-71 18l1 29l216 1l5 -27l-67 -21zM373 20l-57 -25l10 -71l40 -7l-57 -82l27 -7l60 74l28 75z" />
    <glyph glyph-name="ncommaaccent" unicode="&#x146;" horiz-adv-x="638" 
d="M598 132l53 -61l-167 -84l-60 31v304l-31 91l-76 8l-115 -167v-205l54 -16l-8 -38l-182 8l-8 22l53 24v364l-67 38l52 69l92 -99l14 -92l100 160l129 -7l76 -137l-16 -267l16 -14zM345 10l-57 -25l10 -71l40 -7l-57 -82l27 -7l60 74l28 75z" />
    <glyph glyph-name="Ncaron" unicode="&#x147;" horiz-adv-x="733" 
d="M603 58l73 -23l5 -36l-210 4l-3 25l50 20l-337 503l5 -502l51 -17l4 -37l-209 4l-2 25l82 32l-7 594l-65 18l1 29l217 2l4 -29l-57 -17l337 -515l10 516l-71 18l1 29l216 1l5 -27l-67 -21zM366 731v1l-170 138l50 7l40 8l77 -88l63 73l47 -3l43 -8l-149 -128h-1z" />
    <glyph glyph-name="ncaron" unicode="&#x148;" horiz-adv-x="638" 
d="M598 132l53 -61l-167 -84l-60 31v304l-31 91l-76 8l-115 -167v-205l54 -16l-8 -38l-182 8l-8 22l53 24v364l-67 38l52 69l92 -99l14 -92l100 160l129 -7l76 -137l-16 -267l16 -14zM309 531v1l-170 138l50 7l40 8l77 -88l63 73l47 -3l43 -8l-149 -128h-1z" />
    <glyph glyph-name="Omacron" unicode="&#x14c;" horiz-adv-x="629" 
d="M356 620l-186 -6l-55 -206l50 -238l127 -109l84 -7l132 231l-50 238zM210 714l199 -18l134 -146l36 -285l-151 -272l-178 -6l-162 162l-38 252l53 239zM190 834l124 -2l125 -2l-4 -58l-98 3h-143z" />
    <glyph glyph-name="omacron" unicode="&#x14d;" horiz-adv-x="499" 
d="M187 459l102 -8l67 -50l42 -173l-94 -184l-75 -1l-111 105l-19 197zM323 526h-168l-125 -149l11 -228l147 -177l140 6l141 221l-40 229zM125 654l124 -2l125 -2l-4 -58l-98 3h-143z" />
    <glyph glyph-name="Ohungarumlaut" unicode="&#x150;" horiz-adv-x="629" 
d="M356 620l-186 -6l-55 -206l50 -238l127 -109l84 -7l132 231l-50 238zM210 714l199 -18l134 -146l36 -285l-151 -272l-178 -6l-162 162l-38 252l53 239zM232 750h-33l59 129l37 -3l44 2l-63 -75zM342 748h-33l59 130l37 -4l44 3l-63 -76z" />
    <glyph glyph-name="ohungarumlaut" unicode="&#x151;" horiz-adv-x="499" 
d="M187 459l102 -8l67 -50l42 -173l-94 -184l-75 -1l-111 105l-19 197zM323 526h-168l-125 -149l11 -228l147 -177l140 6l141 221l-40 229zM187 570h-33l59 129l37 -3l44 2l-63 -75zM297 568h-33l59 130l37 -4l44 3l-63 -76z" />
    <glyph glyph-name="OE" unicode="&#x152;" horiz-adv-x="934" 
d="M160 99l165 -49l136 18l14 286l-13 263l-61 19l-58 18l-137 -30l-59 -139zM884 -11l-433 24l-161 -56l-229 94l-11 456l120 177l190 37l48 -16l459 -37v-124l-48 1l-14 60l-243 1l-17 -23l5 -207l276 -18l-9 -43l-265 -6l-8 -216l55 -27l224 -9l10 77l50 5z" />
    <glyph glyph-name="oe" unicode="&#x153;" horiz-adv-x="831" 
d="M468 417l-9 -147l241 43l-29 124l-63 24zM295 63l105 191l-37 162l-81 61l-100 8l-84 -112l17 -210l109 -103zM781 35l-271 -39l-88 177l-103 -175l-135 -5l-144 171l-10 221l119 146h164l105 -98l115 80l137 -12l76 -65l27 -167l-300 -48l53 -153l113 2l134 41z" />
    <glyph glyph-name="Racute" unicode="&#x154;" horiz-adv-x="713" 
d="M421 383l89 95l-36 129l-147 26l-103 -16l17 -222zM650 189l63 -66l-124 -111l-78 13l-53 235l-94 69l-130 -19l3 -248l63 -21l8 -38l-215 3l-2 27l59 23l-12 529l-36 39l-72 8l3 54l82 2l42 -17l25 22l272 -4l126 -116l-18 -167l-87 -66l74 -71l7 -180l22 -8zM342 740
h-43l43 139l47 -3l44 3l-49 -76z" />
    <glyph glyph-name="racute" unicode="&#x155;" horiz-adv-x="415" 
d="M324 496l71 -84l-61 -52l-53 77l-81 -27l-24 -53l4 -300l59 -19l-6 -35h-177l-3 27l47 19l-1 400l-49 28l43 55l73 -47l6 -34l51 20zM223 550h-43l43 139l47 -3l44 3l-49 -76z" />
    <glyph glyph-name="Rcommaaccent" unicode="&#x156;" horiz-adv-x="713" 
d="M421 383l89 95l-36 129l-147 26l-103 -16l17 -222zM650 189l63 -66l-124 -111l-78 13l-53 235l-94 69l-130 -19l3 -248l63 -21l8 -38l-215 3l-2 27l59 23l-12 529l-36 39l-72 8l3 54l82 2l42 -17l25 22l272 -4l126 -116l-18 -167l-87 -66l74 -71l7 -180l22 -8zM393 30
l-57 -25l10 -71l40 -7l-57 -82l27 -7l60 74l28 75z" />
    <glyph glyph-name="rcommaaccent" unicode="&#x157;" horiz-adv-x="415" 
d="M324 496l71 -84l-61 -52l-53 77l-81 -27l-24 -53l4 -300l59 -19l-6 -35h-177l-3 27l47 19l-1 400l-49 28l43 55l73 -47l6 -34l51 20zM151 -30l-57 -25l10 -71l40 -7l-57 -82l27 -7l60 74l28 75z" />
    <glyph glyph-name="Rcaron" unicode="&#x158;" horiz-adv-x="713" 
d="M421 383l89 95l-36 129l-147 26l-103 -16l17 -222zM650 189l63 -66l-124 -111l-78 13l-53 235l-94 69l-130 -19l3 -248l63 -21l8 -38l-215 3l-2 27l59 23l-12 529l-36 39l-72 8l3 54l82 2l42 -17l25 22l272 -4l126 -116l-18 -167l-87 -66l74 -71l7 -180l22 -8zM336 731v1
l-170 138l50 7l40 8l77 -88l63 73l47 -3l43 -8l-149 -128h-1z" />
    <glyph glyph-name="rcaron" unicode="&#x159;" horiz-adv-x="415" 
d="M324 496l71 -84l-61 -52l-53 77l-81 -27l-24 -53l4 -300l59 -19l-6 -35h-177l-3 27l47 19l-1 400l-49 28l43 55l73 -47l6 -34l51 20zM217 541v1l-170 138l50 7l40 8l77 -88l63 73l47 -3l43 -8l-149 -128h-1z" />
    <glyph glyph-name="Sacute" unicode="&#x15a;" horiz-adv-x="578" 
d="M163 686l246 18l63 -43l28 39l53 -42l-94 -113l-38 35l-48 62l-150 -24l-79 -80l61 -113l259 -68l61 -75l-18 -195l-207 -96l-183 50l-31 -50l-61 14l61 134l51 -15l158 -51l156 62l-30 155l-307 63l-57 209zM305 740h-43l43 139l47 -3l44 3l-49 -76z" />
    <glyph glyph-name="sacute" unicode="&#x15b;" horiz-adv-x="473" 
d="M83 494l165 28l112 -46l40 39l43 -30l-76 -102l-36 34l-164 39l-53 -62l69 -97l201 -50l28 -170l-132 -82l-176 40l-24 -41l-50 9l34 105l204 -48l63 47l-24 84l-214 73l-58 119zM242 560h-43l43 139l47 -3l44 3l-49 -76z" />
    <glyph glyph-name="Scedilla" unicode="&#x15e;" horiz-adv-x="578" 
d="M163 686l246 18l63 -43l28 39l53 -42l-94 -113l-38 35l-48 62l-150 -24l-79 -80l61 -113l259 -68l61 -75l-18 -195l-207 -96l-183 50l-31 -50l-61 14l61 134l51 -15l158 -51l156 62l-30 155l-307 63l-57 209zM273 28l40 -8l-24 -60l66 -31l-31 -90l-75 -38l-87 18l23 53
l41 -27l50 30l-1 44l-69 24z" />
    <glyph glyph-name="scedilla" unicode="&#x15f;" horiz-adv-x="473" 
d="M83 494l165 28l112 -46l40 39l43 -30l-76 -102l-36 34l-164 39l-53 -62l69 -97l201 -50l28 -170l-132 -82l-176 40l-24 -41l-50 9l34 105l204 -48l63 47l-24 84l-214 73l-58 119zM221 28l40 -8l-24 -60l66 -31l-31 -90l-75 -38l-87 18l23 53l41 -27l50 30l-1 44l-69 24z
" />
    <glyph glyph-name="Scaron" unicode="&#x160;" horiz-adv-x="578" 
d="M163 686l246 18l63 -43l28 39l53 -42l-94 -113l-38 35l-48 62l-150 -24l-79 -80l61 -113l259 -68l61 -75l-18 -195l-207 -96l-183 50l-31 -50l-61 14l61 134l51 -15l158 -51l156 62l-30 155l-307 63l-57 209zM299 731v1l-170 138l50 7l40 8l77 -88l63 73l47 -3l43 -8
l-149 -128h-1z" />
    <glyph glyph-name="scaron" unicode="&#x161;" horiz-adv-x="473" 
d="M83 494l165 28l112 -46l40 39l43 -30l-76 -102l-36 34l-164 39l-53 -62l69 -97l201 -50l28 -170l-132 -82l-176 40l-24 -41l-50 9l34 105l204 -48l63 47l-24 84l-214 73l-58 119zM246 541v1l-170 138l50 7l40 8l77 -88l63 73l47 -3l43 -8l-149 -128h-1z" />
    <glyph glyph-name="Tcommaaccent" unicode="&#x162;" horiz-adv-x="575" 
d="M168 694l387 6l-20 -120l-50 10l-5 36h-140l17 -574l47 -16l7 -39l-220 3l-3 28l67 25l-8 575l-49 1l-102 -11l-4 -41l-58 -6l-14 129zM303 -30l-57 -25l10 -71l40 -7l-57 -82l27 -7l60 74l28 75z" />
    <glyph glyph-name="tcommaaccent" unicode="&#x163;" horiz-adv-x="375" 
d="M354 86v-55l-164 -31l-78 77v103v258l-48 -8l-39 -9l-7 48l71 23h14v94l-14 32h85l8 -87v-32l140 17v-78l-140 7v-329l47 -53zM214 -20l-57 -25l10 -71l40 -7l-57 -82l27 -7l60 74l28 75z" />
    <glyph glyph-name="Tcaron" unicode="&#x164;" horiz-adv-x="575" 
d="M170 699h386l-15 -110l-55 15v39h-166l23 -598l49 -15v-39l-205 7v25l70 22l-8 598h-55l-101 -15v-39l-64 -8l-8 118h149zM287 741v1l-170 138l50 7l40 8l77 -88l63 73l47 -3l43 -8l-149 -128h-1z" />
    <glyph glyph-name="tcaron" unicode="&#x165;" horiz-adv-x="490" 
d="M354 86v-55l-164 -31l-78 77v103v258l-48 -8l-39 -9l-7 48l71 23h14v94l-14 32h85l8 -87v-32l140 17v-78l-140 7v-329l47 -53zM372 598l57 25l51 -43l-28 -75l-60 -74l-27 7l57 82l-40 7z" />
    <glyph glyph-name="Umacron" unicode="&#x16a;" horiz-adv-x="696" 
d="M666 709l-4 -36l-55 -19l-19 -535l-101 -119l-256 -10l-117 126l-23 498l-5 42l-56 15l1 29l211 2l3 -29l-66 -20l3 -481l63 -101l207 7l61 87l-8 495l-47 15l1 27zM223 834l124 -2l125 -2l-4 -58l-98 3h-143z" />
    <glyph glyph-name="umacron" unicode="&#x16b;" horiz-adv-x="600" 
d="M576 130l44 -76l-147 -70l-56 15l-18 58l-13 69l-177 -141l-104 36l-30 118l-3 308l-42 18l3 24l179 4l-5 -36l-52 -21v-282l37 -89l65 36l121 67l16 278l-44 20l3 27h158l5 -34l-52 -20l-3 -371l15 -25zM155 644l124 -2l125 -2l-4 -58l-98 3h-143z" />
    <glyph glyph-name="Uring" unicode="&#x16e;" horiz-adv-x="696" 
d="M666 709l-4 -36l-55 -19l-19 -535l-101 -119l-256 -10l-117 126l-23 498l-5 42l-56 15l1 29l211 2l3 -29l-66 -20l3 -481l63 -101l207 7l61 87l-8 495l-47 15l1 27zM366 833l-46 -6l-9 -58l25 -29l40 9l18 53zM299 869l94 3l42 -47l-8 -94l-92 -42l-66 47l-9 71z" />
    <glyph glyph-name="uring" unicode="&#x16f;" horiz-adv-x="600" 
d="M576 130l44 -76l-147 -70l-56 15l-18 58l-13 69l-177 -141l-104 36l-30 118l-3 308l-42 18l3 24l179 4l-5 -36l-52 -21v-282l37 -89l65 36l121 67l16 278l-44 20l3 27h158l5 -34l-52 -20l-3 -371l15 -25zM308 643l-46 -6l-9 -58l25 -29l40 9l18 53zM241 679l94 3l42 -47
l-8 -94l-92 -42l-66 47l-9 71z" />
    <glyph glyph-name="Uhungarumlaut" unicode="&#x170;" horiz-adv-x="696" 
d="M666 709l-4 -36l-55 -19l-19 -535l-101 -119l-256 -10l-117 126l-23 498l-5 42l-56 15l1 29l211 2l3 -29l-66 -20l3 -481l63 -101l207 7l61 87l-8 495l-47 15l1 27zM296 760h-33l59 129l37 -3l44 2l-63 -75zM406 758h-33l59 130l37 -4l44 3l-63 -76z" />
    <glyph glyph-name="uhungarumlaut" unicode="&#x171;" horiz-adv-x="600" 
d="M576 130l44 -76l-147 -70l-56 15l-18 58l-13 69l-177 -141l-104 36l-30 118l-3 308l-42 18l3 24l179 4l-5 -36l-52 -21v-282l37 -89l65 36l121 67l16 278l-44 20l3 27h158l5 -34l-52 -20l-3 -371l15 -25zM208 550h-33l59 129l37 -3l44 2l-63 -75zM318 548h-33l59 130
l37 -4l44 3l-63 -76z" />
    <glyph glyph-name="Uogonek" unicode="&#x172;" horiz-adv-x="696" 
d="M666 709l-4 -36l-55 -19l-19 -535l-101 -119l-256 -10l-117 126l-23 498l-5 42l-56 15l1 29l211 2l3 -29l-66 -20l3 -481l63 -101l207 7l61 87l-8 495l-47 15l1 27zM375 0v10h91v-10l-111 -50l-30 -40l-1 -35l51 -25l60 10v-50l-84 -9l-75 38l-15 71l54 70z" />
    <glyph glyph-name="uogonek" unicode="&#x173;" horiz-adv-x="600" 
d="M576 130l44 -76l-147 -70l-56 15l-18 58l-13 69l-177 -141l-104 36l-30 118l-3 308l-42 18l3 24l179 4l-5 -36l-52 -21v-282l37 -89l65 36l121 67l16 278l-44 20l3 27h158l5 -34l-52 -20l-3 -371l15 -25zM526 60v10h91v-10l-111 -50l-30 -40l-1 -35l51 -25l60 10v-50
l-84 -9l-75 38l-15 71l54 70z" />
    <glyph glyph-name="Ydieresis" unicode="&#x178;" horiz-adv-x="630" 
d="M329 60l67 -21l5 -37l-210 4l-2 24l71 28l-3 249l-203 346l-54 21l3 26l210 4l-7 -37l-35 -12l130 -266l171 273l-64 17l2 30l215 1l5 -29l-82 -26l-225 -341zM387 856l62 -13l-4 -54l-56 -24l-30 60zM210 864l64 -26l4 -48l-68 -23l-29 53z" />
    <glyph glyph-name="Zacute" unicode="&#x179;" horiz-adv-x="560" 
d="M66 715l-16 -121l75 -16l17 48l271 -3l-383 -548l13 -73l487 11l-17 140l-82 -6l-8 -54l-262 -18l-22 19l383 544l-8 66l-395 -7zM306 750h-43l43 139l47 -3l44 3l-49 -76z" />
    <glyph glyph-name="zacute" unicode="&#x17a;" horiz-adv-x="482" 
d="M75 514l47 -11l301 11l3 -78l-291 -375l213 21l11 60l82 6l1 -145l-402 7l8 64l283 366l-202 12l-19 -42l-37 7zM257 550h-43l43 139l47 -3l44 3l-49 -76z" />
    <glyph glyph-name="Zdotaccent" unicode="&#x17b;" horiz-adv-x="560" 
d="M50 594l16 121l53 -18l395 7l8 -66l-383 -544l22 -19l262 18l8 54l82 6l17 -140l-487 -11l-13 73l383 548l-271 3l-17 -48zM345 776l-76 -32l-34 68l41 39l64 -8z" />
    <glyph glyph-name="zdotaccent" unicode="&#x17c;" horiz-adv-x="482" 
d="M75 514l47 -11l301 11l3 -78l-291 -375l213 21l11 60l82 6l1 -145l-402 7l8 64l283 366l-202 12l-19 -42l-37 7zM306 586l-76 -32l-34 68l41 39l64 -8z" />
    <glyph glyph-name="Zcaron" unicode="&#x17d;" horiz-adv-x="560" 
d="M66 715l-16 -121l75 -16l17 48l271 -3l-383 -548l13 -73l487 11l-17 140l-82 -6l-8 -54l-262 -18l-22 19l383 544l-8 66l-395 -7zM290 731v1l-170 138l50 7l40 8l77 -88l63 73l47 -3l43 -8l-149 -128h-1z" />
    <glyph glyph-name="zcaron" unicode="&#x17e;" horiz-adv-x="482" 
d="M75 514l47 -11l301 11l3 -78l-291 -375l213 21l11 60l82 6l1 -145l-402 7l8 64l283 366l-202 12l-19 -42l-37 7zM251 541v1l-170 138l50 7l40 8l77 -88l63 73l47 -3l43 -8l-149 -128h-1z" />
    <glyph glyph-name="florin" unicode="&#x192;" horiz-adv-x="406" 
d="M258 438l-75 -497l-118 -107l-155 26l27 55l112 -18l61 65l65 420l8 39l-68 9l10 36l63 19l24 129l118 107l156 -26l-27 -55l-113 18l-61 -65l-20 -106l141 19l-4 -53z" />
    <glyph glyph-name="Scommaaccent" unicode="&#x218;" horiz-adv-x="578" 
d="M163 686l246 18l63 -43l28 39l53 -42l-94 -113l-38 35l-48 62l-150 -24l-79 -80l61 -113l259 -68l61 -75l-18 -195l-207 -96l-183 50l-31 -50l-61 14l61 134l51 -15l158 -51l156 62l-30 155l-307 63l-57 209zM303 -30l-57 -25l10 -71l40 -7l-57 -82l27 -7l60 74l28 75z
" />
    <glyph glyph-name="scommaaccent" unicode="&#x219;" horiz-adv-x="473" 
d="M83 494l165 28l112 -46l40 39l43 -30l-76 -102l-36 34l-164 39l-53 -62l69 -97l201 -50l28 -170l-132 -82l-176 40l-24 -41l-50 9l34 105l204 -48l63 47l-24 84l-214 73l-58 119zM243 -20l-57 -25l10 -71l40 -7l-57 -82l27 -7l60 74l28 75z" />
    <glyph glyph-name="circumflex" unicode="&#x2c6;" horiz-adv-x="320" 
d="M150 725v-1l170 -146l-50 1l-40 2l-77 78l-63 -83l-47 3l-43 8l149 138h1z" />
    <glyph glyph-name="caron" unicode="&#x2c7;" horiz-adv-x="320" 
d="M170 571v1l-170 138l50 7l40 8l77 -88l63 73l47 -3l43 -8l-149 -128h-1z" />
    <glyph glyph-name="breve" unicode="&#x2d8;" horiz-adv-x="353" 
d="M50 720l110 -93l25 -19l102 121l66 -61l-160 -90h-33l-160 107z" />
    <glyph glyph-name="dotaccent" unicode="&#x2d9;" horiz-adv-x="110" 
d="M110 616l-76 -32l-34 68l41 39l64 -8z" />
    <glyph glyph-name="ring" unicode="&#x2da;" horiz-adv-x="175" 
d="M106 663l-46 -6l-9 -58l25 -29l40 9l18 53zM39 699l94 3l42 -47l-8 -94l-92 -42l-66 47l-9 71z" />
    <glyph glyph-name="ogonek" unicode="&#x2db;" horiz-adv-x="205" 
d="M114 0v10h91v-10l-111 -50l-30 -40l-1 -35l51 -25l60 10v-50l-84 -9l-75 38l-15 71l54 70z" />
    <glyph glyph-name="tilde" unicode="&#x2dc;" 
d="M69 595l-69 9l46 87l74 13l63 -68l24 9l10 51l61 2l-15 -64l-41 -45l-59 -9l-66 72l-21 -9z" />
    <glyph glyph-name="hungarumlaut" unicode="&#x2dd;" horiz-adv-x="250" 
d="M33 580h-33l59 129l37 -3l44 2l-63 -75zM143 578h-33l59 130l37 -4l44 3l-63 -76z" />
    <glyph glyph-name="afii10023" unicode="&#x401;" horiz-adv-x="604" 
d="M396 830l62 -13l-4 -54l-56 -24l-30 60zM209 838l64 -26l4 -48l-68 -23l-29 53zM554 2l-1 150l-49 -4l-10 -78l-244 10l-50 164l2 79l286 5l8 43l-296 19l-4 207l18 24l262 -2l13 -60l48 -2v125l-517 11l6 -33l87 -29l33 -572l-97 -18l5 -32z" />
    <glyph glyph-name="afii10051" unicode="&#x402;" horiz-adv-x="675" 
d="M635 66l-60 -119l-145 -67l-25 61l117 45l29 129l3 204l-77 34l-224 -23l-10 -277l65 -23l7 -26l-203 -12l-12 23l71 39v574l-13 1l-82 -11l-4 -41l-58 -6l-14 129l148 -6l327 6l-20 -120l-50 10l-5 36h-100l-39 1l-3 -247l287 48l83 -56z" />
    <glyph glyph-name="afii10052" unicode="&#x403;" horiz-adv-x="510" 
d="M490 612l-6 88l-434 -13l-1 -20l51 -32l-10 -587l-60 -20l4 -28h212l6 35l-59 17l-7 573l230 4l-14 -66l87 -13zM288 731h-43l43 139l47 -3l44 3l-49 -76z" />
    <glyph glyph-name="afii10053" unicode="&#x404;" horiz-adv-x="603" 
d="M40 327l9 111l50 172l119 94l128 3l165 -76l30 -105l-84 -27l6 98l-123 52l-167 -76l-49 -148l1 -10l116 -18l147 21l-2 -72l-141 -7l-113 5l7 -56l15 -144l155 -85l176 62l-22 135l76 -4l14 -177l-256 -93l-228 116z" />
    <glyph glyph-name="afii10054" unicode="&#x405;" horiz-adv-x="578" 
d="M163 686l246 18l63 -43l28 39l53 -42l-94 -113l-38 35l-48 62l-150 -24l-79 -80l61 -113l259 -68l61 -75l-18 -195l-207 -96l-183 50l-31 -50l-61 14l61 134l51 -15l158 -51l156 62l-30 155l-307 63l-57 209z" />
    <glyph glyph-name="afii10055" unicode="&#x406;" horiz-adv-x="282" 
d="M182 42l59 -22l2 -30l-191 15l-1 29l69 22l-17 599l-73 25l2 27l214 2l6 -36l-67 -20z" />
    <glyph glyph-name="afii10056" unicode="&#x407;" horiz-adv-x="282" 
d="M182 42l59 -22l2 -30l-191 15l-1 29l69 22l-17 599l-73 25l2 27l214 2l6 -36l-67 -20zM196 850l62 -13l-4 -54l-56 -24l-30 60zM49 858l64 -26l4 -48l-68 -23l-29 53z" />
    <glyph glyph-name="afii10057" unicode="&#x408;" horiz-adv-x="470" 
d="M440 673l-59 -24l-11 -542l-44 -178l-146 -80l-139 67l-41 143l82 27l30 -154l59 -3l93 66l30 154l-6 504l-77 26l3 30l221 1z" />
    <glyph glyph-name="afii10058" unicode="&#x409;" horiz-adv-x="856" 
d="M507 450l187 -15l132 -126l-45 -257l-204 -56l-59 5l-170 4l-3 27l71 15l14 581h-64l-84 -16l-26 -206l-55 -302l-45 -95l-139 -26l-17 60l84 24l45 50l57 299l22 209l-80 25l4 53l204 -10l239 18l18 -68l-64 -16l-19 -2zM673 366l-167 2l-2 -289l83 -24l119 45l47 155z
" />
    <glyph glyph-name="afii10059" unicode="&#x40a;" horiz-adv-x="876" 
d="M500 410l214 -15l132 -116l-45 -227l-204 -46l-105 8l-49 -25l-86 2l-5 39l41 5l35 29l-3 269h-235l-15 -273l78 -26l6 -37l-219 3l-2 25l76 30l-18 585l-66 23l3 28l220 2l6 -37l-66 -20l-3 -215l235 -17l-2 235l-63 6l-10 52l203 -3l9 -34l-62 -20v-230zM505 92
l102 -27l119 35l52 135l-85 91l-187 2z" />
    <glyph glyph-name="afii10060" unicode="&#x40b;" horiz-adv-x="735" 
d="M300 626l-39 1l-3 -247l287 48l83 -56l12 -329l65 -25l-3 -26h-218l-5 34l66 20l9 273l-77 34l-224 -23l-10 -277l65 -23l7 -26l-203 -12l-12 23l71 39v574l-13 1l-82 -11l-4 -41l-58 -6l-14 129l148 -6l327 6l-20 -120l-50 10l-5 36h-100z" />
    <glyph glyph-name="afii10061" unicode="&#x40c;" horiz-adv-x="630" 
d="M501 113l129 -59l-60 -80l-130 78l-71 224l-86 66l-86 -27l-2 -261l69 -14l5 -39l-220 4l-4 27l67 20v595l-82 30l1 29h225l6 -37l-61 -17l2 -1l-5 -269l100 28l67 51l61 221l119 24l17 -60l-73 -14l-89 -225l-38 -28l62 -32zM328 731h-43l43 139l47 -3l44 3l-49 -76z
" />
    <glyph glyph-name="afii10062" unicode="&#x40e;" horiz-adv-x="677" 
d="M320 3l-129 -26l-66 9l-3 97l135 -39l52 90l-250 512l-59 24l3 28l216 3l-7 -40l-39 -12l176 -430l160 436l-71 20l1 32l234 1l4 -31l-88 -28l-213 -534zM207 890l110 -93l25 -19l102 121l66 -61l-160 -90h-33l-160 107z" />
    <glyph glyph-name="afii10145" unicode="&#x40f;" horiz-adv-x="724" 
d="M607 75h27l60 -8l-15 -68l-36 10h-234l-15 -170l-49 1l-18 167l6 2h-245l-39 -10l-19 67l66 9h27l-7 568l-66 26l3 26l217 4l-5 -38l-59 -16l-2 -569h322v569l-59 16l-6 38l218 -4l-13 -26l-51 -26z" />
    <glyph glyph-name="afii10017" unicode="&#x410;" horiz-adv-x="616" 
d="M608 39l7 -39h-194l-23 24l78 22l-31 141l-24 46l-248 -31l-16 -54l-15 -102l62 -22v-32l-201 15v32l61 15l186 652l109 -16l195 -636zM196 263l202 39l-85 311l-15 -8l-102 -325v-17z" />
    <glyph glyph-name="afii10018" unicode="&#x411;" horiz-adv-x="579" 
d="M363 75l107 78l4 145l-105 80l-150 -31l-15 -12l-7 -247l23 -19zM515 359l34 -215l-136 -146l-285 5v2l-89 1l-5 33l92 17l-15 577l-75 29l-6 33h102l141 4l145 -7l67 24l29 -63l-82 -25l-201 -1l-39 -14l8 -172l12 -20l154 36l73 -45z" />
    <glyph glyph-name="afii10019" unicode="&#x412;" horiz-adv-x="602" 
d="M379 75l93 88l-4 94l-94 86l-140 -27l-15 -12l-6 -216l22 -19zM247 627l-39 -14l7 -204l13 -20l142 32l84 74l-63 134zM509 319l43 -166l-123 -155l-285 5v2l-109 1l-5 33l111 17l-16 577l-86 29l-7 33h115l141 4l158 -21l86 -201l-99 -105z" />
    <glyph glyph-name="afii10020" unicode="&#x413;" horiz-adv-x="510" 
d="M484 700l6 -88l-1 -62l-87 13l14 66l-230 -4l7 -573l59 -17l-6 -35h-212l-4 28l60 20l10 587l-51 32l1 20z" />
    <glyph glyph-name="afii10021" unicode="&#x414;" horiz-adv-x="723" 
d="M205 66l113 3l161 -4l13 559h-49l-165 -15l-4 -203l-49 -297zM660 60l13 -26l-27 -195l-69 -9l22 167l-203 11l-303 -6l14 -149l-55 -9l-52 191l29 25l52 3l29 8l45 51l50 295v206l-79 24l6 52l282 -10l235 17l18 -66l-63 -16l-20 -2l-4 -559z" />
    <glyph glyph-name="afii10022" unicode="&#x415;" horiz-adv-x="616" 
d="M565 146l1 -155l-510 7l-6 34l99 17l-33 586l-87 30l-9 34l528 -12l1 -127l-50 2l-14 61l-266 1l-19 -24l5 -211l302 -21l-9 -43l-291 -5l-2 -83l50 -166l249 -10l11 80z" />
    <glyph glyph-name="afii10024" unicode="&#x416;" horiz-adv-x="884" 
d="M755 108l129 -59l-60 -80l-131 78l-71 224l-108 66l-32 -12l-3 -276l76 -14l6 -39l-224 4l-3 27l74 20v279l-34 11l-110 -66l-73 -224l-130 -78l-61 80l131 59l76 234l63 32l-38 28l-91 225l-70 14l15 60l119 -24l62 -221l92 -51l49 -11v248l-91 30l4 29h227l5 -37
l-60 -17l-6 -1l-3 -254l45 13l90 51l60 221l119 24l17 -60l-72 -14l-90 -225l-37 -28l63 -32z" />
    <glyph glyph-name="afii10025" unicode="&#x417;" horiz-adv-x="554" 
d="M251 720l125 -1l81 -111l9 -190l-144 -54l156 -55l26 -182l-223 -146l-251 90l15 175l72 5l-19 -134l171 -58l150 114l-53 126l-163 50l17 42l160 43l5 138l-130 89l-120 -50l6 -94l-84 24l31 106z" />
    <glyph glyph-name="afii10026" unicode="&#x418;" horiz-adv-x="717" 
d="M35 36l76 24l-4 583l-73 22l5 31l234 -2l1 -30l-73 -19l-12 -478l325 445l-1 33l-71 16l4 30l229 -2l2 -31l-70 -19l-8 -586l88 -35l-4 -26l-220 -5l6 39l54 16l-5 484l-323 -435v-46l52 -20l-1 -27l-216 -1z" />
    <glyph glyph-name="afii10027" unicode="&#x419;" horiz-adv-x="712" 
d="M227 900l110 -93l25 -19l102 121l66 -61l-160 -90h-33l-160 107zM110 63l-73 -26l-7 -38l215 1l2 28l-51 20v45l318 431l6 -477l-55 -18l-4 -37l218 3l3 27l-88 33l8 582l69 20l-1 30l-227 2l-3 -30l70 -16l1 -33l-324 -441l14 474l71 19l-1 31h-231l-4 -30l70 -22z" />
    <glyph glyph-name="afii10028" unicode="&#x41a;" horiz-adv-x="630" 
d="M501 113l129 -59l-60 -80l-130 78l-71 224l-86 66l-86 -27l-2 -261l69 -14l5 -39l-220 4l-4 27l67 20v595l-82 30l1 29h225l6 -37l-61 -17l2 -1l-5 -269l100 28l67 51l61 221l119 24l17 -60l-73 -14l-89 -225l-38 -28l62 -32z" />
    <glyph glyph-name="afii10029" unicode="&#x41b;" horiz-adv-x="643" 
d="M356 693l239 18l18 -68l-64 -16l-21 -2l-4 -580l49 -18l6 -37l-211 15l-3 27l71 15l14 581h-64l-104 -16l-26 -206l-55 -302l-45 -95l-139 -26l-17 60l84 24l45 50l57 299l22 209l-80 25l4 53z" />
    <glyph glyph-name="afii10030" unicode="&#x41c;" horiz-adv-x="816" 
d="M716 47l70 -23l-3 -28l-214 1l-2 30l86 22l10 559l-10 2l-214 -592l-57 -1l-199 579l-25 -3l30 -541l63 -19l7 -38l-207 4l-3 26l59 24l-7 613l-68 24l-2 23l166 -9l27 -44l182 -546l11 1l182 560l26 35l159 -2v-33l-47 -9z" />
    <glyph glyph-name="afii10031" unicode="&#x41d;" horiz-adv-x="699" 
d="M599 630l-1 -571l64 -22l-4 -29l-225 2l-2 29l76 21l2 263h-319l-15 -263l78 -26l6 -37l-219 3l-2 25l76 30l-18 585l-66 23l3 28l220 2l6 -37l-66 -20l-3 -225l326 -38l10 259l-65 20l-10 28l209 11l9 -21z" />
    <glyph glyph-name="afii10032" unicode="&#x41e;" horiz-adv-x="640" 
d="M362 627l-190 -6l-56 -210l51 -243l130 -112l86 -7l135 236l-52 243zM213 723l203 -18l137 -149l37 -291l-154 -278l-182 -6l-165 165l-39 257l54 244z" />
    <glyph glyph-name="afii10033" unicode="&#x41f;" horiz-adv-x="724" 
d="M634 623h-27l8 -568l51 -26l13 -26l-218 -4l6 38l59 16v569h-322l2 -569l59 -16l5 -38l-217 4l-3 26l66 26l7 568h-27l-66 9l19 67l39 -10h555l36 10l15 -68z" />
    <glyph glyph-name="afii10034" unicode="&#x420;" horiz-adv-x="543" 
d="M264 637l-87 -27l12 -263l177 1l86 107l-55 150zM388 283l-205 -14v-216l60 -20l6 -36l-208 5l-2 24l71 28l-7 584l-34 27l-39 5l5 37l83 3l46 -24l92 8l214 -43l43 -246z" />
    <glyph glyph-name="afii10035" unicode="&#x421;" horiz-adv-x="500" 
d="M239 62l186 8l32 -76l-241 -16l-155 101l-16 450l117 169l194 39l124 -84l-124 -164l-30 23l61 116l-54 48l-132 -31l-54 -140v-388z" />
    <glyph glyph-name="afii10036" unicode="&#x422;" horiz-adv-x="571" 
d="M170 699h386l-15 -110l-55 15v39h-166l23 -598l49 -15v-39l-205 7v25l70 22l-8 598h-55l-101 -15v-39l-64 -8l-8 118h149z" />
    <glyph glyph-name="afii10037" unicode="&#x423;" horiz-adv-x="677" 
d="M320 3l-129 -26l-66 9l-3 97l135 -39l52 90l-250 512l-59 24l3 28l216 3l-7 -40l-39 -12l176 -430l160 436l-71 20l1 32l234 1l4 -31l-88 -28l-213 -534z" />
    <glyph glyph-name="afii10038" unicode="&#x424;" horiz-adv-x="833" 
d="M445 542l13 -326l188 -23l90 141l-57 202l-142 33zM185 193l186 22l-4 334l-73 20l-141 -33l-59 -202zM667 124l-216 8v-99l64 -20l4 -38l-217 3l-4 27l76 28l-2 100l-210 -9l-132 156l45 306l228 44l71 -8l-1 78l-49 11l-3 31l168 4l-1 -31l-48 -15l2 -78l86 8l228 -44
l47 -306z" />
    <glyph glyph-name="afii10039" unicode="&#x425;" horiz-adv-x="660" 
d="M652 38l8 -37l-209 -6l-4 27l48 20l-124 220l-44 70l-155 -290l47 -16l-3 -29l-215 1l-1 30l71 19l222 336l-186 272l-60 18l1 29l213 1l5 -27l-54 -18l118 -220l18 -28l143 242l-51 25l4 25l208 -15l-7 -36l-74 -16l-193 -270v-2l196 -305z" />
    <glyph glyph-name="afii10040" unicode="&#x426;" horiz-adv-x="752" 
d="M722 65l-15 -71l-38 -140l-57 -2l12 152l-547 1l1 49l25 16l-6 576l-67 25l4 28l218 3l-5 -39l-49 -16l-2 -577h347v577l-49 16l-5 39l218 -3l-13 -28l-51 -25l-8 -576l27 -1z" />
    <glyph glyph-name="afii10041" unicode="&#x427;" horiz-adv-x="655" 
d="M554 636v-593l62 -21l-4 -30l-220 2l-2 30l74 20l3 266l-287 -48l-83 56l-12 329l-65 25l3 26h218l5 -34l-66 -20l-9 -273l77 -34l224 23l10 277l-65 23l-7 26l203 12l12 -23z" />
    <glyph glyph-name="afii10042" unicode="&#x428;" horiz-adv-x="899" 
d="M812 56l43 -3l5 -46l-24 -4h-290h-31l-451 1l-1 45l27 7l-7 596l-53 21l2 23l177 3l-5 -31l-41 -15l-1 -596l205 -7l49 7v596l-41 15l-4 31l176 -3l-10 -23l-41 -21l-6 -596l48 -3l199 4v596l-40 15l-3 31l175 -3l-9 -23l-42 -21z" />
    <glyph glyph-name="afii10043" unicode="&#x429;" horiz-adv-x="930" 
d="M820 49l69 -10l11 -55l-38 -143l-48 -4l11 155l-274 3h-31l-456 3v43l27 8l-5 610l-56 22l2 21l178 2l-3 -30l-40 -13l-1 -611l206 -5l49 5v611l-42 13l-4 30l178 -2l-10 -21l-40 -22l-8 -610l50 -3l200 4v611l-39 13l-6 30l180 -2l-12 -21l-42 -22z" />
    <glyph glyph-name="afii10044" unicode="&#x42a;" horiz-adv-x="660" 
d="M279 92l90 -27l140 35l57 155l-89 111l-198 2v-276zM273 450l227 -15l130 -126l-44 -257l-225 -46l-96 8l-48 -25l-86 2l-5 39l40 5l36 29l-5 575l-76 -6l-151 16v67l153 -30l204 16l8 -42l-62 -20v-190z" />
    <glyph glyph-name="afii10045" unicode="&#x42b;" horiz-adv-x="815" 
d="M714 54l61 -24l2 -32l-197 16l-2 32l72 20l-18 578l-74 28l2 27l220 2l5 -38l-68 -19zM188 96l89 -28l163 32l53 174l-101 139l-209 -45zM177 449l216 34l164 -155l-41 -276l-248 -44l-95 9l-49 -26l-85 4l-6 39l41 6l36 27l-5 575l-75 28l3 27l217 3l-6 -36l-63 -20z
" />
    <glyph glyph-name="afii10046" unicode="&#x42c;" horiz-adv-x="566" 
d="M185 92l92 -27l139 35l57 155l-90 111l-197 2zM180 450l224 -15l132 -126l-45 -257l-224 -46l-95 8l-49 -25l-86 2l-5 39l41 5l35 29l-5 575l-63 6l-10 52l203 -3l9 -34l-62 -20v-190z" />
    <glyph glyph-name="afii10047" unicode="&#x42d;" horiz-adv-x="603" 
d="M544 438l9 -111l-29 -229l-228 -116l-256 93l14 177l76 4l-22 -135l176 -62l155 85l15 144l7 56l-113 -5l-141 7l-2 72l147 -21l116 18l1 10l-49 148l-167 76l-123 -52l6 -98l-84 27l30 105l165 76l128 -3l119 -94z" />
    <glyph glyph-name="afii10048" unicode="&#x42e;" horiz-adv-x="938" 
d="M679 64l137 207l-49 244l-104 99l-217 -7l-71 -218l55 -241l136 -77zM851 541l37 -289l-157 -251l-208 -6l-171 131l-34 190l-134 5l-2 -278l61 -25l2 -27l-193 15l-1 29l69 21l-17 601l-73 25l5 27l212 2l6 -37l-66 -18l-3 -283l124 9v1l71 251l107 75l230 -18z" />
    <glyph glyph-name="afii10049" unicode="&#x42f;" horiz-adv-x="687" 
d="M-39 76l60 68l70 -68l53 -16l84 99l69 123l-161 108l8 199l115 115l269 -15l30 -23l39 23l84 -8l8 -53l-78 -8l-38 -39l-7 -536l60 -23l-6 -24l-215 -7l7 38l62 23l7 215l-76 8l-85 -123l-130 -154l-108 8zM205 451l115 -115l154 16l16 260l-108 23l-130 -23z" />
    <glyph glyph-name="afii10065" unicode="&#x430;" horiz-adv-x="519" 
d="M332 262l-85 -3l-112 -75l-3 -112l40 -21h3t8.5 0.5t12.5 1t13.5 1t13.5 1t11.5 1t8.5 1.5t3 2l93 130zM78 456l105 73l226 -53l4 -411l85 -6l1 -46l-124 -12l-42 88l-52 -82l-169 -32l-62 75l4 152l171 111l106 14l8 109l-167 22l-49 -85l-55 58z" />
    <glyph glyph-name="afii10066" unicode="&#x431;" horiz-adv-x="501" 
d="M235 389l-107 -61l9 -259l147 -28l108 156l-66 177zM397 753l59 -56l-72 -56l-190 -72l-65 -79l-6 -93l122 58l143 -40l93 -224l-127 -201l-244 5l-56 48l-4 431l79 119l199 83z" />
    <glyph glyph-name="afii10067" unicode="&#x432;" horiz-adv-x="498" 
d="M409 288l80 -218l-161 -80l-218 7l-63 49l7 363l16 63l170 40l128 -40l41 -103l-58 -81h58zM320 425l-80 31l-121 -47l7 -130h58h104l56 80zM255 46l147 32l-58 161l-218 -32v-129z" />
    <glyph glyph-name="afii10068" unicode="&#x433;" horiz-adv-x="431" 
d="M406 510l5 -91l-2 -52l-78 12l14 56l-168 -4l7 -376l61 -18l-5 -36h-206l-4 29l61 21l12 391l-54 34l1 20z" />
    <glyph glyph-name="afii10069" unicode="&#x434;" horiz-adv-x="610" 
d="M170 61l94 3l134 -4l11 377l-41 1l-137 -13l-4 -117l-40 -212zM549 56l11 -22l-23 -163l-58 -6l18 138l-168 9l-252 -4l11 -125l-45 -8l-43 160l24 21l43 3l24 6l38 42l41 211v118l-65 20l4 44l235 -9l194 15l16 -56l-52 -13l-18 -1l-2 -378z" />
    <glyph glyph-name="afii10070" unicode="&#x435;" horiz-adv-x="495" 
d="M133 270l1 4l228 36l-27 128l-66 25l-127 -44zM194 514l138 -10l78 -69l28 -168l-305 -48l53 -156l115 4l136 41l8 -77l-275 -40l-120 177l13 251z" />
    <glyph glyph-name="afii10072" unicode="&#x436;" horiz-adv-x="709" 
d="M639 95l70 -40l-46 -68l-84 52l-126 216l-67 -23l-4 -185l73 -23l4 -29l-182 -5l-3 31l46 21l-5 183l-61 30l-127 -216l-85 -64l-42 80l67 40l130 181l-73 86l-78 114l76 30l51 -109l85 -97l54 -13l-4 179l-53 15l3 27l199 4l-6 -37l-63 -18l-2 -173l62 16l78 103l59 103
l76 -29l-85 -109l-66 -92z" />
    <glyph glyph-name="afii10073" unicode="&#x437;" horiz-adv-x="443" 
d="M192 518l102 -2l65 -96l9 -122l-94 -50l101 -50l18 -132l-122 -87l-146 2l-95 64l6 100l58 5l-10 -63l55 -48l122 11l65 57l-39 84l-112 44l14 38l111 37l1 102l-105 54l-75 -40l5 -86l-67 22l24 95z" />
    <glyph glyph-name="afii10074" unicode="&#x438;" horiz-adv-x="582" 
d="M36 26l63 20l-5 424l-60 19l4 26l197 -2l1 -25l-61 -16l-14 -356l247 345v11l-61 13l5 24l191 -2l1 -25l-58 -15l-7 -427l73 -28l-2 -24l-184 -3l4 33l45 14l-5 356l-243 -337l2 -16l45 -19l-2 -21l-182 -2z" />
    <glyph glyph-name="afii10075" unicode="&#x439;" horiz-adv-x="579" 
d="M154 710l102 -71l23 -12l111 92l66 -60l-165 -70h-35l-152 88zM98 49l-64 -20l-4 -31h180l2 24l-43 16l-3 16l241 334l5 -352l-45 -14l-4 -31l183 3l3 22l-73 28l6 424l57 15v26h-191l-4 -24l60 -14v-11l-243 -341l12 352l61 16l-1 27h-195l-4 -26l59 -19z" />
    <glyph glyph-name="afii10076" unicode="&#x43a;" horiz-adv-x="495" 
d="M427 84l68 -39l-42 -65l-84 51l-135 219l-74 -23l-2 -177l75 -23l6 -27l-198 -5l-6 29l50 21l-1 419l-54 17l2 25l202 3l-6 -37l-68 -14v-180l71 15l78 105l66 123l57 -18l-74 -140l-69 -92z" />
    <glyph glyph-name="afii10077" unicode="&#x43b;" horiz-adv-x="571" 
d="M305 493l220 16l16 -53l-57 -14l-19 -1l-4 -393l55 -14l5 -37l-204 4l-2 25l71 24l13 392h-66l-97 -15l-23 -137l-27 -187l-40 -90l-132 -22l-14 54l79 22l42 47l28 189l20 138l-75 21l4 40z" />
    <glyph glyph-name="afii10078" unicode="&#x43c;" horiz-adv-x="700" 
d="M603 46l67 -22l-4 -28l-213 1l-1 30l86 23l11 362l-11 1l-153 -363l-56 -1l-148 352l-24 -4l30 -345l65 -20l3 -37l-206 4l-3 25l60 24l-7 416l-67 24l-2 24l165 -7l27 -47l129 -304l9 3l124 318l24 34l158 -1v-32l-45 -12z" />
    <glyph glyph-name="afii10079" unicode="&#x43d;" horiz-adv-x="550" 
d="M459 453l-1 -404l56 -19l-5 -25l-184 1l-1 27l63 17l2 162h-229l-14 -162l69 -22l4 -32l-178 2l-3 23l64 26l-14 413l-58 21l4 25h181l4 -30l-56 -17l-3 -170l233 -33l9 199l-55 18l-7 22l170 11l10 -20z" />
    <glyph glyph-name="afii10080" unicode="&#x43e;" horiz-adv-x="499" 
d="M289 451l-102 8l-88 -114l19 -197l111 -105l75 1l94 184l-42 173zM155 526h168l106 -98l40 -229l-141 -221l-140 -6l-147 177l-11 228z" />
    <glyph glyph-name="afii10081" unicode="&#x43f;" horiz-adv-x="579" 
d="M500 456l-16 -3l7 -411l41 -21l10 -22l-179 -4l5 32l40 11v415h-230l1 -415l40 -11l4 -32l-177 4l-3 22l54 21l5 411l-14 3l-58 4l17 55l30 -8h432l30 8l10 -56z" />
    <glyph glyph-name="afii10082" unicode="&#x440;" horiz-adv-x="564" 
d="M415 149l28 101l-55 161l-112 15l-104 -37l6 -259l104 -40zM442 490l92 -258l-104 -181l-161 -31l-101 46l5 -225l67 -23l-4 -39l-202 1l-4 30l62 25l-6 625l-34 12l34 66l87 -45l-7 -40l105 39z" />
    <glyph glyph-name="afii10083" unicode="&#x441;" horiz-adv-x="430" 
d="M386 72l24 -78l-155 -8l-195 64l-8 247l85 171l141 48l108 -62l-54 -141l-31 16l31 93l-39 32l-117 -55l-54 -124l15 -179l118 -46z" />
    <glyph glyph-name="afii10084" unicode="&#x442;" horiz-adv-x="457" 
d="M135 512l302 4l-15 -93l-39 7l-4 29h-109l-3 -426l39 -13l4 -30l-171 4l-2 20l51 20l9 426l-39 2l-79 -9l-3 -33l-45 -5l-11 101z" />
    <glyph glyph-name="afii10085" unicode="&#x443;" horiz-adv-x="531" 
d="M531 486l-52 -21l-172 -622l-101 -79l-111 26l-29 7l5 118l33 86l60 -25l-49 -71l10 -52l72 -24l50 29l20 91l15 89l-71 -16l-153 422l-45 4l-13 44l133 11l45 -210l110 -231l109 405l-47 15l3 27l175 2z" />
    <glyph glyph-name="afii10086" unicode="&#x444;" horiz-adv-x="730" 
d="M391 427l11 -340l137 -22l76 169l-44 180l-97 38zM189 65l136 21l-5 346l-64 20l-96 -39l-45 -179zM561 3l-164 11v-201l55 -18l8 -34l-197 3l-4 23l69 27l-2 200l-159 -11l-117 184l40 279l174 40l64 -8l-8 164l-22 8l-3 27l122 3l-1 -27l-21 -6l-6 -169l78 8l173 -40
l40 -279z" />
    <glyph glyph-name="afii10087" unicode="&#x445;" horiz-adv-x="469" 
d="M465 34l4 -33h-169l-3 26l32 12l-80 147l-28 57l-97 -197l54 -19l-4 -28l-172 2l-2 28l32 9l154 254l-132 180l-49 16l1 28h174l3 -25l-43 -17l94 -153l88 158l-31 18l6 23l168 -17l-8 -32l-63 -16l-119 -196l142 -208z" />
    <glyph glyph-name="afii10088" unicode="&#x446;" horiz-adv-x="587" 
d="M532 479l-40 -20l-7 -408h50l22 -14l-68 -155l-43 -2l22 119l-397 1v38l19 13l-8 408l-52 20l2 23l177 3l-5 -31l-41 -14l-1 -407h248v407l-39 14l-5 31l177 -3z" />
    <glyph glyph-name="afii10089" unicode="&#x447;" horiz-adv-x="503" 
d="M422 464l-3 -439l49 -14l-3 -21l-163 2v23l53 13l2 179l-208 -35l-62 41l-10 259l-47 15l1 22l160 1l5 -28l-47 -12l-8 -218l55 -26l164 20l8 219l-47 16l-6 18l150 10l8 -17z" />
    <glyph glyph-name="afii10090" unicode="&#x448;" horiz-adv-x="719" 
d="M645 52h30l8 -47l-15 -8h-228h-25l-361 8v40l24 7l-9 410l-39 23v16h150v-24l-32 -7v-418h142h39v418l-31 7l-8 24h157l-7 -16l-41 -23l-7 -410h48h133v418l-32 7v24h150l-8 -16l-31 -23z" />
    <glyph glyph-name="afii10091" unicode="&#x449;" horiz-adv-x="758" 
d="M720 38l8 -39l-32 -110h-31l8 117h-612v40l16 8v408l-47 23v15h148v-23l-31 -8v-415h142h40v415l-32 8l-8 23h156l-8 -15l-39 -23v-408h39h141v415l-39 8v23h149l-7 -15l-32 -23l-8 -408z" />
    <glyph glyph-name="afii10092" unicode="&#x44a;" horiz-adv-x="603" 
d="M503 157l-35 76l-115 61l-107 -51l-1 -139l103 -34l105 2zM583 176l-87 -170l-153 -3l-102 37l5 -38l-86 -45l-33 66l45 9l-6 415l-49 2l-117 3l2 57l116 -21l178 14l5 -39l-66 -20l4 -136l98 43l141 -31z" />
    <glyph glyph-name="afii10093" unicode="&#x44b;" horiz-adv-x="686" 
d="M594 44l53 -21l3 -27l-172 14l-1 27l62 18l-14 418l-64 23l3 25l187 1l5 -32l-57 -17zM166 69l77 -21l139 25l18 120l-91 68l-148 -64zM156 268l153 53l147 -82l-9 -206l-212 -37l-83 7l-41 -22l-75 3l-4 34l34 5l31 25l-3 416l-64 24l2 23l187 3l-5 -32l-54 -18z" />
    <glyph glyph-name="afii10094" unicode="&#x44c;" horiz-adv-x="522" 
d="M423 160l-37 78l-116 61l-109 -52l-2 -141l106 -35l106 3zM502 179l-86 -172l-155 -3l-106 38l6 -39l-87 -46l-34 67l45 9l-6 422l-36 3l-13 38l182 14l6 -39l-69 -20l3 -139l100 44l143 -31z" />
    <glyph glyph-name="afii10095" unicode="&#x44d;" horiz-adv-x="490" 
d="M433 325l7 -95l-22 -144l-163 -99l-215 77l11 151l65 4l-19 -115l148 -51l99 72l12 73l5 46l-95 -4l-86 6l-2 61l92 -18l99 16v8l-40 96l-110 64l-103 -44l6 -81l-73 19l27 92l138 63l112 -29l65 -53z" />
    <glyph glyph-name="afii10096" unicode="&#x44e;" horiz-adv-x="691" 
d="M612 365l29 -165l-72 -180l-194 -36l-100 92l-36 137l-80 8v-180l51 -15v-20h-166v20l50 15l-7 424l-56 22v21h165l14 -28l-57 -15l6 -202l72 8l72 180l87 65l129 -15zM527 85l57 128l-44 130l-64 94l-115 -8l-58 -158l36 -166l72 -56z" />
    <glyph glyph-name="afii10097" unicode="&#x44f;" horiz-adv-x="541" 
d="M-1 63l51 49l24 -59l41 -7l58 49l59 75l-133 91v166l116 91l208 -9l16 -24l33 16h42v-49h-34l-25 -34l-9 -381l51 -24v-17l-174 -8v34l49 15l9 117l-67 8l-66 -75l-91 -91h-91zM149 310l116 -90l107 8l17 215l-91 17l-107 -24z" />
    <glyph glyph-name="afii10071" unicode="&#x451;" horiz-adv-x="489" 
d="M339 650l55 -23l6 -60l-52 -17l-45 49zM167 648l35 -34l4 -48l-52 -18l-47 48zM134 270l-2 -4l9 148l125 41l65 -23l28 -125zM330 497l-139 11l-128 -95l-13 -247l119 -176l270 39l-7 76l-134 -40l-114 -3l-51 153l301 47l-28 168z" />
    <glyph glyph-name="afii10099" unicode="&#x452;" horiz-adv-x="517" 
d="M401 115l-6 154l-69 77l-142 -131v-169l63 -22l6 -29l-195 -1l-6 30l48 15l11 462h-61l-5 79l68 -2l2 53l-65 57l75 51l65 -103l-2 -59h9l168 -2l-6 -78l-131 4h-42l-7 -219l105 142l132 -39l61 -113l-3 -214l-49 -111l-145 -67l-25 61l117 45z" />
    <glyph glyph-name="afii10100" unicode="&#x453;" horiz-adv-x="431" 
d="M411 419l-5 91l-356 -14l-1 -20l54 -34l-12 -391l-61 -21l4 -29h206l5 36l-61 18l-7 376l168 4l-14 -56l78 -12zM240 540h-43l43 139l47 -3l44 3l-49 -76z" />
    <glyph glyph-name="afii10101" unicode="&#x454;" horiz-adv-x="490" 
d="M40 230l7 95l42 115l65 53l112 29l138 -63l27 -92l-73 -19l6 81l-103 44l-110 -64l-40 -96v-8l99 -16l92 18l-2 -61l-86 -6l-95 4l5 -46l12 -73l99 -72l148 51l-19 115l65 -4l11 -151l-215 -77l-163 99z" />
    <glyph glyph-name="afii10102" unicode="&#x455;" horiz-adv-x="473" 
d="M83 494l165 28l112 -46l40 39l43 -30l-76 -102l-36 34l-164 39l-53 -62l69 -97l201 -50l28 -170l-132 -82l-176 40l-24 -41l-50 9l34 105l204 -48l63 47l-24 84l-214 73l-58 119z" />
    <glyph glyph-name="afii10103" unicode="&#x456;" 
d="M254 15l4 -28l-200 -2l-5 29l53 21l4 423l-73 25l-7 25l208 12l10 -20l-61 -34l-4 -430zM197 616l-76 -32l-34 68l41 39l64 -8z" />
    <glyph glyph-name="afii10104" unicode="&#x457;" 
d="M254 15l4 -28l-200 -2l-5 29l53 21l4 423l-73 25l-7 25l208 12l10 -20l-61 -34l-4 -430zM107 616l-76 -32l-34 68l41 39l64 -8zM257 616l-76 -32l-34 68l41 39l64 -8z" />
    <glyph glyph-name="afii10105" unicode="&#x458;" 
d="M258 494l-66 -36l-8 -450l-49 -111l-200 -76l-5 71l152 44l29 129l-5 396l-53 17l-7 26l204 11zM204 657l-58 -78l-53 53l18 67h64z" />
    <glyph glyph-name="afii10106" unicode="&#x459;" horiz-adv-x="775" 
d="M295 493l210 16l16 -53l-57 -14l-19 -1l-2 -158l94 41l123 -31l95 -156l-84 -135l-125 -3l-46 2l1 -4l-194 4l-2 25l61 24l13 392h-56l-87 -15l-23 -137l-27 -187l-40 -90l-132 -22l-14 54l79 22l42 47l28 189l20 138l-75 21l4 40zM683 138l-42 88l-96 41l-99 -52
l-2 -144l106 -5l86 3z" />
    <glyph glyph-name="afii10107" unicode="&#x45a;" horiz-adv-x="786" 
d="M766 169l-86 -162l-129 -3l-106 38l6 -39l-87 -46l-34 67l45 9l-3 199h-212l-14 -182l69 -22l4 -32l-178 2l-3 23l64 26l-14 413l-58 21l4 25h181l4 -30l-56 -17l-3 -160l211 -3l-2 159l-36 3l-13 38l182 14l6 -39l-69 -20l3 -149l237 -7zM687 150l-37 78l-199 9l-2 -131
l106 -35l80 3z" />
    <glyph glyph-name="afii10108" unicode="&#x45b;" horiz-adv-x="587" 
d="M45 580l68 -2l2 53l-65 57l75 51l65 -103l-2 -59h9l168 -2l-6 -78l-131 4h-42l-7 -219l105 142l132 -39l61 -113l-14 -228l21 -14l69 110l54 -47l-117 -120l-84 37l-11 259l-69 77l-142 -131v-169l73 -22l6 -29l-195 -1l-6 30l38 15l11 462h-61z" />
    <glyph glyph-name="afii10109" unicode="&#x45c;" horiz-adv-x="495" 
d="M427 84l68 -39l-42 -65l-84 51l-135 219l-74 -23l-2 -177l75 -23l6 -27l-198 -5l-6 29l50 21l-1 419l-54 17l2 25l202 3l-6 -37l-68 -14v-180l71 15l78 105l66 123l57 -18l-74 -140l-69 -92zM260 550h-43l43 139l47 -3l44 3l-49 -76z" />
    <glyph glyph-name="afii10110" unicode="&#x45e;" horiz-adv-x="531" 
d="M531 486l-52 -21l-172 -622l-101 -79l-111 26l-29 7l5 118l33 86l60 -25l-49 -71l10 -52l72 -24l50 29l20 91l15 89l-71 -16l-153 422l-45 4l-13 44l133 11l45 -210l110 -231l109 405l-47 15l3 27l175 2zM134 680l102 -71l23 -12l111 92l66 -60l-165 -70h-35l-152 88z
" />
    <glyph glyph-name="afii10193" unicode="&#x45f;" horiz-adv-x="579" 
d="M484 57l16 -3l49 -3l-10 -56l-30 8h-169l-14 -164l-49 1l-18 163h-182l-30 -8l-17 55l58 4l14 3l-5 411l-54 21l3 22l177 4l-4 -32l-40 -11l-1 -415h230v415l-40 11l-5 32l179 -4l-10 -22l-41 -21z" />
    <glyph glyph-name="afii10050" unicode="&#x490;" horiz-adv-x="510" 
d="M490 715l-6 -88l-298 -2l7 -573l59 -17l-6 -35h-212l-4 28l60 20l10 587l-51 32l1 20l366 11l-2 80l75 -1z" />
    <glyph glyph-name="afii10098" unicode="&#x491;" horiz-adv-x="431" 
d="M50 496l285 7l3 69l71 6l2 -52l-5 -91l-229 -4l7 -376l61 -18l-5 -36h-206l-4 29l61 21l12 391l-54 34z" />
    <glyph glyph-name="endash" unicode="&#x2013;" horiz-adv-x="545" 
d="M20 358q172 -8 182 -8l323 8l-10 -59l-323 -2l-168 -12z" />
    <glyph glyph-name="emdash" unicode="&#x2014;" horiz-adv-x="722" 
d="M20 306v55l342 -5l333 2l7 -59l-331 -2z" />
    <glyph glyph-name="quoteleft" unicode="&#x2018;" horiz-adv-x="188" 
d="M152 519l-55 -47l-67 33l10 112l86 93l32 -7l-68 -99l47 -9z" />
    <glyph glyph-name="quoteright" unicode="&#x2019;" horiz-adv-x="198" 
d="M38 686l68 30l62 -51l-33 -91l-73 -89l-32 7l68 99l-47 9z" />
    <glyph glyph-name="quotesinglbase" unicode="&#x201a;" horiz-adv-x="199" 
d="M38 90l69 30l62 -52l-34 -90l-72 -90l-33 8l69 99l-48 9z" />
    <glyph glyph-name="quotedblleft" unicode="&#x201c;" horiz-adv-x="355" 
d="M151 529l-55 -47l-66 33l10 112l85 93l33 -7l-69 -99l47 -9zM318 529l-54 -47l-67 33l10 112l86 93l32 -7l-69 -99l48 -9z" />
    <glyph glyph-name="quotedblright" unicode="&#x201d;" horiz-adv-x="378" 
d="M37 686l69 30l62 -51l-34 -91l-72 -89l-32 7l68 99l-48 9zM216 686l69 30l63 -51l-35 -91l-72 -89l-33 7l69 99l-48 9z" />
    <glyph glyph-name="quotedblbase" unicode="&#x201e;" horiz-adv-x="378" 
d="M37 106l69 30l62 -51l-34 -91l-72 -89l-32 7l68 99l-48 9zM216 106l69 30l63 -51l-35 -91l-72 -89l-33 7l69 99l-48 9z" />
    <glyph glyph-name="dagger" unicode="&#x2020;" horiz-adv-x="440" 
d="M170 728l78 -16l6 -268l186 1l-9 -57h-175l2 -92l-12 -536l-64 -7l8 545l-5 90h-183l-2 56h151h32z" />
    <glyph glyph-name="daggerdbl" unicode="&#x2021;" horiz-adv-x="440" 
d="M1 56h145h40l4 242l-5 110h-183l-2 56h183l-13 264l78 -16l6 -248l186 1l-9 -57h-175l2 -112l-6 -240l176 1l3 -57h-180l-5 -240l-64 -7l3 247h-181z" />
    <glyph glyph-name="bullet" unicode="&#x2022;" horiz-adv-x="326" 
d="M110 423l101 -2l55 -89l-56 -90l-101 14l-49 81z" />
    <glyph glyph-name="ellipsis" unicode="&#x2026;" horiz-adv-x="567" 
d="M30 62l50 55l77 -20l2 -91l-87 -19zM219 62l50 55l77 -20l2 -91l-87 -19zM408 62l50 55l77 -20l2 -91l-87 -19z" />
    <glyph glyph-name="perthousand" unicode="&#x2030;" horiz-adv-x="1026" 
d="M201 643l-80 2l-32 -99l4 -69l60 -54l42 -3l60 70l-4 109zM121 713l116 -9l76 -80l1 -154l-82 -107l-103 -2l-93 89l-6 92l30 132zM485 711l64 -31l-44 -77l-234 -604l-59 24l-13 17l216 494zM573 272l-80 2l-32 -99l4 -69l60 -54l42 -3l60 70l-4 109zM493 342l116 -9
l76 -80l1 -154l-82 -107l-103 -2l-93 89l-6 92l30 132zM883 272l-80 2l-32 -99l4 -69l60 -54l42 -3l60 70l-4 109zM803 342l116 -9l76 -80l1 -154l-82 -107l-103 -2l-93 89l-6 92l30 132z" />
    <glyph glyph-name="guilsinglleft" unicode="&#x2039;" horiz-adv-x="439" 
d="M398 478l-8 -71l-70 -43l-200 -111l104 -57l185 -97l-14 -73l-216 118l-169 98l6 33l176 83z" />
    <glyph glyph-name="guilsinglright" unicode="&#x203a;" horiz-adv-x="421" 
d="M49 465l43 -29l319 -161l-4 -50l-358 -188l-19 56l129 67l170 93l-121 64l-162 83z" />
    <glyph glyph-name="Euro" unicode="&#x20ac;" horiz-adv-x="560" 
d="M489 147l41 -48l-89 -102l-175 -13l-148 96l-36 198l-71 1l3 36l62 -1l-2 7l9 47h-79l-4 30l87 2l20 110l112 167l180 36l123 -83l-76 -167l-44 16l31 130l-50 40l-127 -29l-58 -132l-15 -82l260 -5l-6 -37l-224 6h-36l-11 -49l3 -8h12l256 -4l8 -38l-267 3l33 -149
l88 -52l111 -13z" />
    <glyph glyph-name="afii61352" unicode="&#x2116;" horiz-adv-x="1043" 
d="M602 60l71 -23l6 -37l-209 3l-3 27l49 19l-334 501l3 -500l52 -16l5 -38l-209 4l-3 27l83 31l-8 591l-64 16l2 31l214 1l5 -29l-57 -18l337 -511l7 512l-69 20l1 28l215 3l5 -29l-67 -22zM915 665l-90 9l-47 -80l27 -108l74 -47l73 80l14 102zM877 713l75 -9l71 -74
l-12 -151l-115 -79l-112 26l-57 133l33 119zM735 347l58 -2l116 -1l96 10l-10 -62l-53 5l-139 5l-68 -5v50z" />
    <glyph glyph-name="trademark" unicode="&#x2122;" horiz-adv-x="680" 
d="M599 423l31 -12l-1 -19h-112l-1 21l37 10l2 226l-6 1l-81 -249h-25l-80 227l-6 -1l7 -203l28 -9l2 -23l-100 1l-1 18l25 12l-2 240l-30 9l-1 19l95 -3l12 -18l60 -182h4l58 186l11 14l104 1v-22l-21 -4zM257 689l-163 -1l-64 1l5 -67l26 2l2 17l36 5h22l3 -226l-28 -10
l-2 -18l113 -2l-8 23l-22 7l-5 225h53l3 -16l20 -5z" />
    <glyph glyph-name="A.alt" horiz-adv-x="616" 
d="M610 40l6 -39l-200 -3l-18 24l63 22l-30 134l-21 35l-243 -27l-10 -39l-18 -105l59 -23l4 -31l-200 17l-2 31l60 18l193 650l108 -14l189 -640z" />
    <glyph glyph-name="C.alt" horiz-adv-x="510" 
d="M239 61l120 -7l83 90l38 -44l-90 -105l-174 -16l-151 98l-15 436l120 165l181 38l121 -82l-75 -166l-46 15l30 127l-44 47l-136 -31l-52 -135v-377z" />
    <glyph glyph-name="D.alt" horiz-adv-x="550" 
d="M500 126l-185 -129l-126 10l-153 2l-6 35l112 19l1 580l-98 34l-7 33h109l160 -10l145 -87z" />
    <glyph glyph-name="e.alt" horiz-adv-x="496" 
d="M194 514l139 -10l78 -69l27 -169l-304 -48l52 -156l116 3l136 42l8 -78l-275 -39l-121 177l12 252z" />
    <glyph glyph-name="E.alt" horiz-adv-x="581" 
d="M191 695l153 25l147 -84l6 -130l-57 7l6 91l-107 63l-178 -110l31 -102l219 -47l8 -42l-253 -58l-36 -148l152 -117l206 72l-39 161l68 -3l34 -202l-280 -102l-221 148l23 201l194 61l-157 74l-17 138z" />
    <glyph glyph-name="G.alt" horiz-adv-x="590" 
d="M343 208l-10 48l163 -20l-3 -234l-302 -7l-161 162l56 469l176 90l192 -37l86 -49l-108 -190l-48 9l56 136l-131 54l-174 -84l-10 -408l120 -69l120 -17l53 53l-3 80z" />
    <glyph glyph-name="g.alt" horiz-adv-x="529" 
d="M188 150l-37 29l-22 -117l218 -12l70 -7l51 -147l-371 -93l-57 131l72 -17l7 -58l266 90l-17 33l-292 34l-31 74l45 137l-38 47l3 118l103 108l173 3l23 -16l136 89l9 -49l-95 -76l23 -18l71 -86l-81 -201z" />
    <glyph glyph-name="K.alt" horiz-adv-x="625" 
d="M495 128l130 -59l-59 -80l-131 78l-178 261l-64 -13l-5 -268l69 -15l7 -40l-220 4l-5 28l68 18v604l-77 28l2 28l223 2l6 -38l-65 -19l-2 -280l57 17l135 213l79 -25l-139 -188l34 -43z" />
    <glyph glyph-name="k.alt" horiz-adv-x="498" 
d="M433 95l65 -39l-41 -64l-81 51l-136 216l-43 7v-210l73 -21l6 -30l-194 -3l-6 30l51 21l-20 607l-57 16l3 27l211 4l-5 -38l-64 -14l2 -339l46 17l138 195l61 -50l-77 -107l-65 -66z" />
    <glyph glyph-name="L.alt" horiz-adv-x="445" 
d="M415 109l-5 -91l-156 -14l-186 -17l-2 21l44 27l-17 638l-63 21l4 28l223 1l6 -37l-61 -18l-2 -614l136 40l-15 68l93 12z" />
    <glyph glyph-name="O.alt" horiz-adv-x="893" 
d="M477 420l-81 -2l-25 -77l83 -51l52 67zM641 607l-280 54l-269 -105l51 -369l126 -108l372 -19l151 242l-49 207zM187 700l224 20l283 -37l133 -147l36 -254l-204 -298l-431 21l-162 161l-36 393z" />
    <glyph glyph-name="o.alt" horiz-adv-x="579" 
d="M281 300l35 -2l22 -35l-29 -34l-49 13l-4 43zM392 449l-166 19l-132 -115l16 -197l102 -95l160 -3l124 118l-43 228zM199 522l224 -23l97 -90l29 -273l-155 -139l-221 -1l-133 161l-10 206z" />
    <glyph glyph-name="P.alt" horiz-adv-x="448" 
d="M293 283l-111 -14v-205l62 -19l7 -38l-208 4l-2 27l67 25l-6 562l-37 28l-35 6l5 35l75 2l25 -11l119 9l122 -43l42 -246z" />
    <glyph glyph-name="q.alt" horiz-adv-x="541" 
d="M459 -126l52 -17l-5 -36h-191l-4 29l59 24l8 203l-24 10l-86 -55l-153 30l-85 183l87 249l161 27l173 -48l-14 -74z" />
    <glyph glyph-name="R.alt" horiz-adv-x="584" 
d="M336 363l101 125l-35 132l-149 28l-19 -17l17 -227zM478 275l76 -179l-83 -41l-85 211l-96 39l-47 12l4 -254l64 -21l7 -39l-219 3l-3 28l61 23l-12 547l-40 45l-75 8l4 47l84 3l38 -16l18 18l207 -4l130 -120l-18 -169l-91 -68z" />
    <glyph glyph-name="r.alt" horiz-adv-x="390" 
d="M315 514l75 -87l-63 -54l-50 54l-63 -14l-51 -106l3 -250l57 -18l-5 -36h-184l-4 28l53 21l-5 418l-45 25l41 57l69 -47l15 -109l48 54z" />
    <glyph glyph-name="afii10085.alt" horiz-adv-x="531" 
d="M531 486l-53 -21l-216 -620l-117 -51l-127 68l28 69l107 -69l56 15l27 84l29 87l-54 -26l-154 422l-44 4l-13 44l133 11l45 -210l93 -221l126 395l-47 15l3 27l175 2z" />
    <glyph glyph-name="afii10038.alt" horiz-adv-x="803" 
d="M186 193l185 22l-4 334l-72 20l-143 -33l-58 -202zM640 124l-188 8v-109l63 -20l5 -38l-220 3l-2 27l77 28l-4 110l-208 -9l-133 156l45 306l228 44l69 -8l5 73l-36 6l-3 31l137 4l-1 -31l-35 -5l5 -78l84 8l200 -44l45 -306z" />
    <glyph glyph-name="y.alt" horiz-adv-x="510" 
d="M510 484l-55 -20l-169 -614l-99 -77l-110 26l-27 6l5 117l32 84l59 -24l-47 -70l8 -50l72 -24l50 29l18 89l13 87l-67 -17l-135 418l-45 4l-13 42l132 12l44 -207l91 -229l108 402l-44 14l1 26l173 1z" />
    <glyph glyph-name="afii10071.alt" horiz-adv-x="507" 
d="M325 672l56 -23l4 -64l-52 -17l-47 50zM143 670l36 -36l5 -50l-53 -18l-48 50zM342 512l-143 12l-136 -100l-13 -257l124 -184l283 41l-8 80l-139 -42l-118 -4l-57 161l315 48l-28 175z" />
    <glyph glyph-name="afii10032.alt" horiz-adv-x="613" 
d="M119 14l-3 -61l165 -8l247 3l11 62l-241 -11zM378 631l-205 -14l-54 -268l159 -182l141 -5l100 155l-34 192zM211 703l207 -18l139 -153l6 -235l-91 -186l-237 -20l-185 250l52 286z" />
    <glyph glyph-name="afii10034.alt" horiz-adv-x="458" 
d="M263 637l-87 -27l11 -263l85 1l86 107l-55 150zM294 283l-113 -14v-205l63 -19l6 -38l-207 4l-2 27l67 25l-7 562l-36 28l-35 6l4 35l77 2l24 -11l119 9l121 -43l43 -246z" />
    <glyph glyph-name="afii10017.alt" horiz-adv-x="616" 
d="M610 40l6 -39l-200 -3l-18 24l63 22l-30 134l-21 35l-243 -27l-10 -39l-18 -105l59 -23l4 -31l-200 17l-2 31l60 18l193 650l108 -14l189 -640z" />
    <glyph glyph-name="afii10035.alt" horiz-adv-x="510" 
d="M239 61l120 -7l83 90l38 -44l-90 -105l-174 -16l-151 98l-15 436l120 165l181 38l121 -82l-75 -166l-46 15l30 127l-44 47l-136 -31l-52 -135v-377z" />
    <glyph glyph-name="afii10070.alt" horiz-adv-x="496" 
d="M194 514l139 -10l78 -69l27 -169l-304 -48l52 -156l116 3l136 42l8 -78l-275 -39l-121 177l12 252z" />
    <glyph glyph-name="afii10022.alt" horiz-adv-x="581" 
d="M191 695l153 25l147 -84l6 -130l-57 7l6 91l-107 63l-178 -110l31 -102l219 -47l8 -42l-253 -58l-36 -148l152 -117l206 72l-39 161l68 -3l34 -202l-280 -102l-221 148l23 201l194 61l-157 74l-17 138z" />
    <glyph glyph-name="afii10028.alt" horiz-adv-x="625" 
d="M495 128l130 -59l-59 -80l-131 78l-178 261l-64 -13l-5 -268l69 -15l7 -40l-220 4l-5 28l68 18v604l-77 28l2 28l223 2l6 -38l-65 -19l-2 -280l57 17l135 213l79 -25l-139 -188l34 -43z" />
    <glyph glyph-name="afii10080.alt" horiz-adv-x="619" 
d="M301 300l35 -2l22 -35l-29 -34l-49 13l-4 43zM412 449l-166 19l-132 -115l16 -197l102 -95l160 -3l124 118l-43 228zM219 522l224 -23l97 -90l29 -273l-155 -139l-221 -1l-133 161l-10 206z" />
    <glyph glyph-name="commaaccent" horiz-adv-x="115" 
d="M7 65l57 25l51 -43l-28 -75l-60 -74l-27 7l57 82l-40 7z" />
    <glyph glyph-name="O.alt2" horiz-adv-x="613" 
d="M119 14l-3 -61l165 -8l247 3l11 62l-241 -11zM378 631l-205 -14l-54 -268l159 -182l141 -5l100 155l-34 192zM211 703l207 -18l139 -153l6 -235l-91 -186l-237 -20l-185 250l52 286z" />
    <glyph glyph-name="P.alt2" horiz-adv-x="458" 
d="M263 637l-87 -27l11 -263l85 1l86 107l-55 150zM294 283l-113 -14v-205l63 -19l6 -38l-207 4l-2 27l67 25l-7 562l-36 28l-35 6l4 35l77 2l24 -11l119 9l121 -43l43 -246z" />
    <glyph glyph-name="R.alt2" horiz-adv-x="584" 
d="M478 275l76 -179l-83 -41l-85 211l-96 39l-47 12l4 -254l64 -21l7 -39l-219 3l-3 28l61 23l-12 547l-40 45l-75 8l4 47l84 3l38 -16l18 18l207 -4l130 -120l-18 -169l-91 -68z" />
    <glyph glyph-name="afii10032.alt2" horiz-adv-x="893" 
d="M477 420l-81 -2l-25 -77l83 -51l52 67zM641 607l-280 54l-269 -105l51 -369l126 -108l372 -19l151 242l-49 207zM187 700l224 20l283 -37l133 -147l36 -254l-204 -298l-431 21l-162 161l-36 393z" />
    <glyph glyph-name="afii10034.alt2" horiz-adv-x="448" 
d="M293 283l-111 -14v-205l62 -19l7 -38l-208 4l-2 27l67 25l-6 562l-37 28l-35 6l5 35l75 2l25 -11l119 9l122 -43l42 -246z" />
    </font>
</defs>
</svg>
